<?xml version="1.0" encoding="utf-8"?>
<!-- Generator: Adobe Illustrator 16.0.0, SVG Export Plug-In . SVG Version: 6.00 Build 0)  -->
<!DOCTYPE svg PUBLIC "-//W3C//DTD SVG 1.1//EN" "http://www.w3.org/Graphics/SVG/1.1/DTD/svg11.dtd">
<svg version="1.1" id="Capa_1" xmlns="http://www.w3.org/2000/svg" xmlns:xlink="http://www.w3.org/1999/xlink" x="0px" y="0px"
	 width="371px" height="300px" viewBox="0 0 371 300" enable-background="new 0 0 371 300" xml:space="preserve">
<g>
	<g>
		<path fill="#001C7D" d="M261.455,81.804c0,41.948-34.008,75.954-75.955,75.954c-41.949,0-75.955-34.006-75.955-75.954
			c0-41.949,34.006-75.955,75.955-75.955C227.447,5.85,261.455,39.855,261.455,81.804 M185.5,18.509
			c-34.957,0-63.295,28.338-63.295,63.295c0,34.956,28.338,63.295,63.295,63.295s63.295-28.339,63.295-63.295
			C248.795,46.847,220.457,18.509,185.5,18.509"/>
		<path fill="#001C7D" d="M215.357,90.44c-5.998-18.66-24.631-18.988-25.639-19.081c-0.408-0.037-0.551-2.018-0.918-4.036
			c-0.367-2.018-0.367-3.853-0.367-3.853s3.303,1.468,7.889,1.101c4.588-0.367,6.238-2.202,7.34-3.853
			c1.1-1.651-0.184-4.403,0.551-4.587c0.732-0.183,1.65-2.018,3.484-4.954c1.834-2.935,2.385-3.118,2.936-4.953
			c0.551-1.833-0.551-5.137-1.102-4.953c-0.549,0.183-0.732,6.788-0.732,6.788l-5.688,6.972c0,0-1.836-0.184-2.936,0.55
			c-1.102,0.734-3.854,3.303-6.055,4.587c-2.201,1.285-5.504,0.917-7.521,0.917s-2.752-0.55-3.303-1.467
			c-0.551-0.918-0.551-1.651-0.551-1.651s1.102-0.551,2.201-1.651c1.102-1.101,1.102-3.486,1.102-3.486s0.918,0,1.652-2.018
			c0.732-2.018-3.303-3.669-3.854-3.669s-0.369,2.753-0.369,2.753s-2.75-0.551-4.77,0.366c-2.018,0.917-2.018,5.137-2.018,5.137
			l-1.467,0.368l1.283,1.467c0,0-0.184,1.101,0,2.201c0.184,1.101,4.588-0.55,4.588-0.55s0.732,0.917,0.732,2.385
			c0,1.468-0.182,3.486-1.283,4.037c-1.102,0.55-3.486,2.384-8.256,2.935c-4.77,0.551-9.174,0.917-11.375-0.367
			s-4.953-4.771-5.504-4.771c0,0-0.551,1.101,0.551,3.119c1.1,2.018,2.752,1.651,2.752,1.651s2.018,1.467,5.688,2.385
			c2.143,0.536,5.871-0.184,5.871-0.184s-1.146,5.871,2.201,5.871c5.504,0,8.072-7.889,9.174-7.889c1.1,0,4.035,1.835,4.77,2.569
			c0.734,0.733,1.467,1.651,1.467,1.651s-9.174,3.302-14.859,12.475c-5.688,9.174-8.957,16.065-16.695,17.613
			c-8.256,1.651-12.66-3.853-12.66-3.853s0.918,7.889,8.256,9.357c7.34,1.468,9.908-0.917,9.908-0.917s-2.385,2.018-4.771,2.568
			c-2.385,0.55-6.236,0-6.236,0s2.75,5.504,11.008,5.504c8.254,0,11.008-2.201,11.008-2.201s-0.184,2.017-2.387,3.118
			c-2.201,1.101-3.852,1.468-3.852,1.468s3.119,2.018,8.623,1.284c5.504-0.734,8.807-2.936,8.807-2.936s-1.469,3.853-5.504,4.586
			c-4.037,0.735-8.623,0.184-8.623,0.184s5.688,5.871,17.246,4.586c11.557-1.283,12.291-4.22,12.291-4.22s-0.734,0.78-0.551,2.752
			s2.385,3.118,2.385,3.118s-1.283-1.284-0.549-3.118c0.734-1.835,6.055-8.073,7.521-7.522c1.469,0.551,1.469,1.285-0.918,3.669
			c-2.385,2.385-4.035,3.486-4.035,3.486S224.025,117.41,215.357,90.44"/>
	</g>
	<g>
		<path fill="#001C7D" d="M145.254,177.996v75.807h-9.615v-13.029c-4.088,4.971-8.674,8.709-13.76,11.218
			c-5.086,2.508-10.65,3.763-16.688,3.763c-10.73,0-19.893-3.89-27.486-11.671c-7.596-7.779-11.393-17.245-11.393-28.393
			c0-10.915,3.832-20.252,11.496-28.01c7.664-7.757,16.885-11.636,27.662-11.636c6.223,0,11.855,1.324,16.895,3.972
			c5.041,2.647,9.465,6.619,13.273,11.914v-13.935H145.254z M106.271,185.451c-5.428,0-10.439,1.335-15.033,4.002
			c-4.594,2.668-8.248,6.416-10.961,11.24c-2.715,4.825-4.07,9.929-4.07,15.311c0,5.337,1.367,10.44,4.104,15.312
			c2.738,4.871,6.416,8.664,11.031,11.379s9.57,4.071,14.859,4.071c5.336,0,10.393-1.346,15.172-4.037s8.455-6.333,11.031-10.926
			c2.574-4.593,3.861-9.767,3.861-15.521c0-8.768-2.887-16.099-8.664-21.992C121.824,188.398,114.715,185.451,106.271,185.451z"/>
		<path fill="#001C7D" d="M165.947,177.996h9.756v35.395c0,8.64,0.465,14.587,1.395,17.837c1.396,4.646,4.059,8.315,7.99,11.009
			c3.93,2.694,8.617,4.041,14.061,4.041c5.441,0,10.059-1.312,13.852-3.937c3.791-2.623,6.408-6.072,7.85-10.347
			c0.977-2.926,1.465-9.127,1.465-18.604v-35.395h9.965v37.206c0,10.452-1.221,18.325-3.658,23.62
			c-2.439,5.296-6.109,9.441-11.01,12.438s-11.043,4.494-18.428,4.494c-7.387,0-13.553-1.498-18.5-4.494s-8.639-7.177-11.078-12.542
			c-2.438-5.365-3.658-13.436-3.658-24.212V177.996z"/>
		<path fill="#001C7D" d="M245.309,177.996h11.705l20.162,27.731l19.951-27.731h11.725l-25.803,35.811l29.078,39.996h-11.881
			l-23.074-31.839l-22.939,31.839h-11.641l28.721-39.925L245.309,177.996z"/>
	</g>
	<g>
		<path fill="#001C7D" d="M12.411,283.379c0,0.42,0.178,0.756,0.535,1.008c0.356,0.252,0.797,0.434,1.322,0.546
			c0.524,0.112,1.098,0.161,1.721,0.146c0.623-0.014,1.196-0.084,1.722-0.21c0.524-0.126,0.965-0.297,1.322-0.514
			c0.356-0.217,0.535-0.473,0.535-0.767c0-0.321-0.126-0.602-0.378-0.84c-0.252-0.237-0.566-0.472-0.944-0.703
			c-0.378-0.23-0.787-0.472-1.229-0.724c-0.44-0.252-0.85-0.546-1.228-0.882s-0.692-0.734-0.944-1.196s-0.378-1.021-0.378-1.68
			c0-0.643,0.115-1.294,0.347-1.951c0.23-0.658,0.538-1.291,0.923-1.9c0.385-0.608,0.833-1.179,1.344-1.71
			c0.511-0.532,1.042-0.994,1.595-1.386s1.109-0.699,1.669-0.924c0.56-0.224,1.084-0.336,1.574-0.336
			c0.63,0,1.176,0.119,1.638,0.357s0.843,0.532,1.144,0.882s0.528,0.724,0.683,1.122c0.153,0.399,0.23,0.753,0.23,1.061
			s-0.053,0.665-0.157,1.07c-0.105,0.406-0.245,0.826-0.42,1.26s-0.382,0.857-0.619,1.27c-0.238,0.413-0.49,0.78-0.756,1.102
			c-0.266,0.322-0.539,0.585-0.818,0.787c-0.28,0.203-0.553,0.305-0.818,0.305c-0.336,0-0.634-0.073-0.893-0.221
			c-0.259-0.146-0.462-0.304-0.608-0.472c-0.147-0.168-0.225-0.325-0.231-0.473c-0.007-0.146,0.081-0.22,0.263-0.22
			c0.196,0,0.451-0.186,0.767-0.557c0.314-0.371,0.622-0.84,0.923-1.406s0.56-1.183,0.777-1.848
			c0.217-0.664,0.325-1.297,0.325-1.899c0-0.224-0.063-0.392-0.189-0.504c-0.126-0.111-0.287-0.168-0.482-0.168
			c-0.294,0-0.623,0.109-0.986,0.326c-0.364,0.217-0.728,0.503-1.092,0.86c-0.364,0.356-0.724,0.773-1.081,1.249
			c-0.356,0.476-0.668,0.969-0.934,1.479c-0.267,0.511-0.483,1.025-0.651,1.543s-0.252,1-0.252,1.448
			c0,0.602,0.091,1.105,0.273,1.511c0.182,0.406,0.405,0.753,0.672,1.039c0.266,0.287,0.56,0.546,0.881,0.777
			c0.322,0.23,0.616,0.472,0.882,0.724s0.49,0.539,0.672,0.86c0.182,0.322,0.272,0.722,0.272,1.197c0,0.644-0.14,1.196-0.42,1.658
			c-0.279,0.461-0.664,0.839-1.154,1.133c-0.489,0.294-1.066,0.511-1.731,0.651c-0.665,0.14-1.382,0.209-2.151,0.209
			c-0.7,0-1.351-0.102-1.952-0.304c-0.602-0.203-1.119-0.462-1.553-0.776c-0.434-0.315-0.773-0.669-1.019-1.061
			c-0.244-0.392-0.367-0.776-0.367-1.154c0-0.531,0.108-0.99,0.325-1.375s0.451-0.682,0.703-0.892s0.486-0.326,0.703-0.347
			c0.218-0.021,0.325,0.053,0.325,0.221c0,0.084-0.031,0.161-0.094,0.23c-0.063,0.07-0.137,0.161-0.221,0.273
			c-0.084,0.111-0.157,0.251-0.221,0.419C12.442,282.875,12.411,283.1,12.411,283.379z"/>
		<path fill="#001C7D" d="M34.178,280.126c0.098-0.126,0.182-0.172,0.252-0.137c0.069,0.035,0.122,0.102,0.157,0.199
			c0.034,0.099,0.056,0.203,0.063,0.315c0.007,0.111-0.003,0.188-0.031,0.23c-0.154,0.21-0.389,0.521-0.703,0.934
			c-0.314,0.413-0.686,0.868-1.112,1.365c-0.427,0.496-0.896,1-1.406,1.511s-1.036,0.979-1.574,1.406
			c-0.539,0.427-1.078,0.773-1.616,1.039c-0.539,0.266-1.047,0.398-1.522,0.398c-0.35,0-0.717-0.094-1.102-0.283
			c-0.385-0.188-0.738-0.427-1.06-0.713c-0.322-0.287-0.585-0.592-0.787-0.913c-0.203-0.322-0.291-0.609-0.263-0.861
			c0.056-0.629,0.186-1.259,0.389-1.889c0.202-0.63,0.454-1.228,0.755-1.795c0.302-0.566,0.634-1.099,0.997-1.595
			c0.364-0.497,0.738-0.924,1.123-1.28c0.385-0.357,0.767-0.641,1.145-0.851c0.377-0.21,0.72-0.314,1.028-0.314
			c0.392,0,0.77,0.104,1.133,0.314c0.364,0.21,0.676,0.473,0.935,0.787s0.462,0.654,0.608,1.019
			c0.147,0.363,0.214,0.692,0.199,0.986c-0.027,0.294-0.164,0.654-0.409,1.081s-0.556,0.832-0.934,1.217
			c-0.378,0.386-0.798,0.718-1.26,0.997c-0.462,0.28-0.931,0.42-1.406,0.42c-0.28,0-0.528-0.018-0.745-0.053
			c-0.217-0.034-0.416-0.087-0.598-0.157c-0.141,0.378-0.252,0.731-0.336,1.061c-0.084,0.328-0.13,0.615-0.137,0.86
			s0.035,0.44,0.126,0.588c0.091,0.146,0.234,0.22,0.431,0.22c0.433,0,0.888-0.107,1.364-0.325c0.476-0.217,0.955-0.5,1.438-0.85
			s0.958-0.749,1.427-1.196c0.469-0.448,0.913-0.899,1.333-1.354c0.42-0.454,0.809-0.889,1.165-1.301
			C33.601,280.794,33.911,280.434,34.178,280.126z M29.77,278.446c-0.154,0-0.332,0.092-0.535,0.273s-0.42,0.427-0.65,0.734
			c-0.231,0.308-0.466,0.665-0.703,1.07c-0.238,0.406-0.47,0.826-0.693,1.26c0.546-0.126,1.025-0.371,1.438-0.735
			c0.412-0.363,0.741-0.737,0.986-1.123c0.244-0.384,0.385-0.727,0.42-1.028C30.066,278.597,29.979,278.446,29.77,278.446z"/>
		<path fill="#001C7D" d="M45.617,280.252c0.111-0.168,0.202-0.231,0.272-0.189s0.122,0.126,0.157,0.252s0.049,0.263,0.042,0.409
			c-0.007,0.147-0.024,0.241-0.053,0.283c-0.056,0.084-0.213,0.302-0.472,0.651s-0.581,0.776-0.966,1.28s-0.812,1.05-1.28,1.637
			c-0.469,0.588-0.938,1.158-1.406,1.711s-0.913,1.061-1.333,1.521c-0.42,0.462-0.776,0.812-1.07,1.05
			c-0.028,0.028-0.057,0.049-0.084,0.063c-0.028,0.014-0.057,0.034-0.084,0.063c-0.476,1.077-0.977,2.116-1.501,3.117
			c-0.524,1-1.057,1.886-1.595,2.655c-0.539,0.77-1.085,1.385-1.638,1.847s-1.088,0.693-1.605,0.693
			c-0.448,0-0.809-0.074-1.081-0.221c-0.272-0.147-0.486-0.333-0.641-0.557c-0.153-0.224-0.255-0.462-0.304-0.714
			c-0.049-0.251-0.066-0.476-0.053-0.671c0.028-0.267,0.175-0.563,0.44-0.893c0.267-0.329,0.623-0.682,1.071-1.06
			c0.447-0.378,0.965-0.784,1.553-1.218s1.218-0.896,1.889-1.385c0.462-0.98,0.917-2.013,1.365-3.097
			c0.447-1.084,0.874-2.151,1.28-3.201c-0.267,0.378-0.543,0.756-0.829,1.134c-0.287,0.378-0.563,0.718-0.829,1.019
			c-0.267,0.301-0.515,0.545-0.745,0.734c-0.231,0.188-0.417,0.283-0.557,0.283c-0.28,0-0.602-0.063-0.966-0.189
			c-0.363-0.126-0.703-0.305-1.018-0.536s-0.573-0.508-0.776-0.831c-0.203-0.322-0.291-0.68-0.263-1.072
			c0.028-0.267,0.123-0.651,0.283-1.156c0.161-0.505,0.371-1.056,0.63-1.651s0.55-1.209,0.871-1.84s0.654-1.202,0.997-1.714
			s0.679-0.929,1.008-1.252c0.328-0.322,0.633-0.483,0.913-0.483c0.377,0,0.727,0.06,1.049,0.18s0.619,0.272,0.893,0.456
			c0.272,0.184,0.518,0.385,0.734,0.604c0.217,0.219,0.402,0.427,0.557,0.625c0.182-0.63,0.286-1.063,0.314-1.302
			c0.014-0.252,0.146-0.367,0.398-0.346c0.252,0.021,0.518,0.112,0.798,0.272c0.28,0.161,0.535,0.367,0.767,0.619
			c0.23,0.252,0.339,0.483,0.325,0.692c-0.015,0.099-0.095,0.403-0.241,0.914c-0.147,0.511-0.347,1.155-0.599,1.932
			s-0.557,1.651-0.913,2.625c-0.356,0.973-0.745,1.983-1.165,3.033c0.308-0.336,0.647-0.724,1.019-1.165
			c0.37-0.44,0.745-0.892,1.123-1.354c0.377-0.462,0.748-0.924,1.112-1.386c0.363-0.462,0.695-0.885,0.997-1.27
			c0.301-0.385,0.556-0.721,0.766-1.008C45.386,280.563,45.533,280.363,45.617,280.252z M32.204,295.596
			c0.364,0,0.787-0.305,1.27-0.913c0.483-0.609,0.99-1.403,1.522-2.383c-0.854,0.63-1.557,1.183-2.109,1.658
			s-0.843,0.874-0.871,1.196c-0.028,0.21-0.014,0.336,0.042,0.378S32.162,295.596,32.204,295.596z M35.604,286.171
			c0.126,0,0.312-0.126,0.557-0.378c0.244-0.252,0.511-0.573,0.797-0.966c0.287-0.392,0.588-0.829,0.903-1.312
			c0.314-0.482,0.615-0.958,0.902-1.428c0.286-0.469,0.546-0.898,0.776-1.291c0.231-0.392,0.409-0.692,0.535-0.902
			c0.028-0.111,0.063-0.22,0.105-0.325c0.042-0.104,0.076-0.213,0.104-0.325c-0.168-0.112-0.371-0.206-0.608-0.283
			c-0.238-0.077-0.504-0.115-0.798-0.115c-0.196,0-0.434,0.182-0.714,0.545c-0.279,0.364-0.566,0.815-0.86,1.354
			s-0.577,1.126-0.85,1.763c-0.273,0.637-0.497,1.225-0.672,1.764c-0.176,0.538-0.287,0.99-0.336,1.354
			C35.397,285.989,35.45,286.171,35.604,286.171z"/>
		<path fill="#001C7D" d="M57.266,280.21c0.111-0.168,0.203-0.231,0.272-0.189c0.07,0.042,0.119,0.126,0.147,0.252
			c0.027,0.126,0.042,0.263,0.042,0.409c0,0.147-0.021,0.249-0.063,0.305c-0.14,0.21-0.339,0.511-0.598,0.902
			c-0.26,0.392-0.553,0.818-0.882,1.28s-0.689,0.938-1.081,1.428s-0.784,0.938-1.176,1.343c-0.392,0.406-0.779,0.753-1.164,1.039
			c-0.386,0.287-0.738,0.459-1.061,0.515c-0.126,0.042-0.318,0.028-0.577-0.042s-0.521-0.192-0.787-0.367s-0.49-0.396-0.672-0.661
			s-0.259-0.574-0.23-0.924c0-0.111,0.021-0.248,0.063-0.409s0.098-0.339,0.168-0.535c-0.28,0.35-0.573,0.692-0.881,1.028
			c-0.309,0.336-0.627,0.637-0.955,0.902c-0.329,0.267-0.661,0.479-0.997,0.641s-0.665,0.241-0.987,0.241
			c-0.168,0-0.381-0.053-0.64-0.157c-0.259-0.105-0.504-0.259-0.734-0.462c-0.231-0.203-0.424-0.451-0.578-0.745
			c-0.153-0.294-0.216-0.63-0.188-1.008c0.028-0.252,0.115-0.577,0.263-0.976c0.146-0.399,0.329-0.843,0.546-1.333
			c0.217-0.489,0.444-0.997,0.682-1.521c0.238-0.525,0.465-1.032,0.683-1.522c0.217-0.489,0.398-0.947,0.545-1.375
			c0.147-0.426,0.234-0.779,0.263-1.06c0.028-0.252,0.168-0.37,0.42-0.356s0.518,0.104,0.798,0.272
			c0.279,0.168,0.531,0.375,0.756,0.619c0.224,0.245,0.328,0.473,0.314,0.683c-0.014,0.14-0.108,0.427-0.283,0.86
			c-0.176,0.434-0.385,0.938-0.63,1.511c-0.245,0.574-0.504,1.173-0.776,1.795c-0.273,0.623-0.515,1.193-0.725,1.711
			s-0.36,0.948-0.451,1.291s-0.081,0.514,0.031,0.514c0.294,0,0.661-0.171,1.103-0.514c0.44-0.343,0.902-0.78,1.385-1.313
			c0.483-0.531,0.959-1.13,1.428-1.794c0.469-0.665,0.885-1.313,1.249-1.941c0.321-0.756,0.604-1.452,0.85-2.089
			s0.382-1.137,0.409-1.501c0.014-0.252,0.147-0.37,0.399-0.356s0.518,0.104,0.798,0.272c0.279,0.168,0.531,0.375,0.755,0.619
			c0.224,0.245,0.329,0.473,0.315,0.683c-0.015,0.126-0.074,0.35-0.179,0.672c-0.104,0.321-0.238,0.71-0.398,1.164
			c-0.161,0.455-0.344,0.948-0.546,1.48c-0.203,0.531-0.402,1.06-0.599,1.585c-0.196,0.524-0.385,1.024-0.566,1.5
			c-0.182,0.477-0.329,0.882-0.44,1.218c-0.07,0.308-0.021,0.462,0.146,0.462c0.153,0,0.35-0.102,0.588-0.305
			c0.237-0.202,0.504-0.476,0.798-0.818c0.293-0.343,0.604-0.728,0.934-1.154s0.654-0.864,0.976-1.313
			c0.322-0.447,0.63-0.885,0.924-1.312S57.027,280.546,57.266,280.21z"/>
		<path fill="#001C7D" d="M65.2,280.252c0.111-0.168,0.202-0.231,0.272-0.189s0.122,0.126,0.157,0.252s0.049,0.263,0.042,0.409
			c-0.007,0.147-0.024,0.241-0.052,0.283c-0.141,0.21-0.329,0.525-0.567,0.945s-0.514,0.878-0.829,1.374
			c-0.314,0.497-0.654,1.008-1.018,1.533c-0.364,0.524-0.731,1.007-1.103,1.448c-0.371,0.44-0.741,0.808-1.112,1.102
			s-0.717,0.462-1.039,0.504c-0.014,0-0.031,0.003-0.053,0.011c-0.021,0.007-0.045,0.01-0.073,0.01
			c-0.112,0-0.308-0.021-0.588-0.063c-0.279-0.042-0.566-0.126-0.86-0.252s-0.546-0.301-0.756-0.524s-0.301-0.525-0.272-0.903
			s0.153-0.825,0.378-1.343c0.224-0.518,0.462-1.035,0.714-1.554c0.252-0.518,0.482-1,0.692-1.448
			c0.21-0.447,0.321-0.776,0.336-0.986c0.027-0.252-0.035-0.473-0.189-0.661c-0.153-0.189-0.37-0.381-0.65-0.577
			c-0.196,0.308-0.389,0.588-0.577,0.84s-0.34,0.454-0.451,0.608c-0.042,0.07-0.099,0.084-0.168,0.042
			c-0.07-0.042-0.133-0.108-0.188-0.199c-0.057-0.091-0.095-0.186-0.116-0.283c-0.021-0.099-0.01-0.183,0.032-0.252
			c0.111-0.14,0.23-0.312,0.356-0.515s0.272-0.423,0.44-0.661c-0.238-0.168-0.476-0.35-0.713-0.546
			c-0.238-0.195-0.444-0.427-0.62-0.692c-0.175-0.266-0.308-0.567-0.398-0.902c-0.091-0.336-0.115-0.728-0.073-1.176
			c0.042-0.546,0.213-1.05,0.514-1.512c0.302-0.461,0.647-0.863,1.039-1.206s0.794-0.609,1.207-0.798
			c0.413-0.189,0.759-0.283,1.039-0.283c0.308,0,0.563,0.157,0.767,0.472c0.202,0.315,0.269,0.851,0.199,1.605
			c-0.057,0.616-0.214,1.257-0.473,1.921c-0.259,0.665-0.556,1.312-0.892,1.941c0.266,0.21,0.556,0.402,0.871,0.577
			c0.314,0.176,0.602,0.36,0.86,0.557s0.469,0.42,0.63,0.672c0.16,0.252,0.228,0.566,0.199,0.944
			c-0.014,0.168-0.095,0.469-0.241,0.902c-0.147,0.435-0.315,0.917-0.504,1.448c-0.188,0.532-0.385,1.07-0.588,1.616
			s-0.374,1.021-0.514,1.428c-0.112,0.392-0.077,0.588,0.104,0.588c0.154,0,0.347-0.116,0.577-0.347
			c0.231-0.23,0.486-0.531,0.767-0.902c0.279-0.371,0.577-0.791,0.892-1.26c0.315-0.469,0.626-0.944,0.935-1.427
			c0.308-0.483,0.604-0.948,0.892-1.396C64.721,280.979,64.976,280.588,65.2,280.252z M58.567,275.802
			c-0.028,0.364,0,0.683,0.084,0.955s0.21,0.515,0.377,0.724c0.308-0.559,0.578-1.133,0.809-1.721s0.367-1.134,0.409-1.638
			c0.042-0.447,0.028-0.748-0.042-0.902c-0.07-0.153-0.182-0.23-0.336-0.23c-0.126,0-0.262,0.098-0.409,0.294
			c-0.146,0.196-0.283,0.438-0.409,0.724c-0.126,0.287-0.234,0.592-0.325,0.913C58.633,275.242,58.581,275.536,58.567,275.802z"/>
		<path fill="#001C7D" d="M71.35,280.23c0.112-0.168,0.199-0.23,0.263-0.188c0.063,0.042,0.104,0.126,0.126,0.252
			c0.021,0.126,0.024,0.262,0.01,0.409c-0.014,0.146-0.034,0.241-0.063,0.283c-0.14,0.224-0.336,0.528-0.588,0.913
			s-0.546,0.808-0.882,1.27c-0.335,0.462-0.696,0.935-1.08,1.417c-0.386,0.482-0.777,0.928-1.176,1.333
			c-0.398,0.406-0.787,0.742-1.165,1.008s-0.728,0.42-1.05,0.461h-0.126c-0.112,0-0.308-0.021-0.587-0.063
			c-0.28-0.042-0.567-0.122-0.861-0.241s-0.546-0.29-0.755-0.515c-0.21-0.224-0.301-0.524-0.273-0.902
			c0.015-0.252,0.102-0.608,0.263-1.07s0.356-0.977,0.588-1.543c0.23-0.566,0.476-1.15,0.734-1.753c0.259-0.602,0.5-1.168,0.724-1.7
			c0.224-0.531,0.413-0.993,0.567-1.385c0.153-0.392,0.237-0.658,0.252-0.798c0.014-0.252,0.146-0.371,0.398-0.356
			c0.252,0.014,0.518,0.104,0.798,0.272c0.279,0.168,0.535,0.375,0.766,0.619c0.231,0.245,0.34,0.473,0.325,0.683
			c-0.014,0.126-0.069,0.339-0.167,0.64c-0.099,0.301-0.221,0.658-0.368,1.07c-0.146,0.413-0.312,0.861-0.493,1.344
			s-0.364,0.962-0.546,1.438c-0.182,0.477-0.354,0.935-0.514,1.375c-0.161,0.44-0.298,0.822-0.409,1.145
			c-0.112,0.377-0.077,0.566,0.104,0.566c0.154,0,0.357-0.102,0.608-0.305c0.252-0.202,0.532-0.472,0.84-0.808
			s0.633-0.714,0.977-1.134c0.343-0.42,0.679-0.854,1.007-1.302c0.329-0.447,0.647-0.881,0.955-1.301S71.126,280.566,71.35,280.23z
			 M68.516,275.802c-0.224,0-0.447-0.035-0.671-0.104c-0.225-0.07-0.424-0.168-0.599-0.294s-0.314-0.273-0.42-0.441
			c-0.104-0.168-0.15-0.343-0.136-0.524c0.027-0.28,0.129-0.57,0.304-0.871s0.396-0.573,0.661-0.818s0.549-0.448,0.851-0.609
			c0.301-0.16,0.591-0.241,0.871-0.241c0.42,0,0.755,0.123,1.007,0.367c0.252,0.245,0.364,0.592,0.336,1.039
			c-0.028,0.225-0.102,0.479-0.22,0.767c-0.119,0.287-0.276,0.56-0.473,0.818s-0.424,0.476-0.683,0.65
			C69.086,275.715,68.81,275.802,68.516,275.802z"/>
		<path fill="#001C7D" d="M83.041,280.23c0.111-0.168,0.203-0.23,0.272-0.188c0.07,0.042,0.119,0.126,0.147,0.252
			c0.027,0.126,0.042,0.262,0.042,0.409c0,0.146-0.015,0.241-0.042,0.283c-0.141,0.224-0.34,0.528-0.599,0.913
			s-0.56,0.808-0.902,1.27s-0.707,0.935-1.092,1.417s-0.776,0.928-1.175,1.333c-0.399,0.406-0.787,0.742-1.165,1.008
			s-0.728,0.42-1.05,0.461h-0.146c-0.112,0-0.309-0.021-0.588-0.063c-0.28-0.042-0.566-0.122-0.86-0.241s-0.546-0.29-0.756-0.515
			c-0.21-0.224-0.301-0.524-0.273-0.902c0.028-0.182,0.091-0.427,0.189-0.734c-0.252,0.322-0.504,0.63-0.756,0.923
			c-0.252,0.294-0.493,0.554-0.724,0.777c-0.231,0.224-0.441,0.402-0.63,0.535c-0.189,0.133-0.347,0.199-0.473,0.199
			c-0.28,0-0.602-0.063-0.966-0.188c-0.363-0.126-0.703-0.305-1.018-0.536c-0.314-0.23-0.573-0.507-0.776-0.829
			c-0.203-0.321-0.283-0.678-0.241-1.07c0.014-0.266,0.108-0.644,0.283-1.133c0.175-0.49,0.396-1.029,0.661-1.616
			c0.266-0.588,0.566-1.183,0.902-1.784s0.683-1.151,1.039-1.648c0.356-0.496,0.703-0.902,1.039-1.217
			c0.336-0.315,0.644-0.473,0.924-0.473c0.335,0,0.657,0.053,0.965,0.157c0.308,0.105,0.591,0.234,0.851,0.389
			c0.259,0.154,0.493,0.333,0.703,0.535c0.21,0.203,0.398,0.396,0.566,0.577c0.49-1.371,0.935-2.76,1.333-4.166
			s0.654-2.697,0.767-3.873c0.014-0.168,0.098-0.266,0.251-0.294c0.154-0.027,0.343-0.003,0.567,0.073
			c0.224,0.077,0.462,0.189,0.714,0.336c0.251,0.147,0.485,0.309,0.703,0.483c0.217,0.175,0.392,0.354,0.524,0.535
			s0.192,0.343,0.179,0.482c-0.015,0.126-0.116,0.476-0.305,1.05c-0.188,0.573-0.427,1.277-0.714,2.109
			c-0.287,0.833-0.605,1.746-0.955,2.739s-0.696,1.97-1.039,2.928c-0.343,0.959-0.661,1.857-0.955,2.697s-0.524,1.512-0.692,2.016
			c-0.112,0.377-0.07,0.566,0.126,0.566c0.14,0,0.336-0.102,0.588-0.305c0.252-0.202,0.528-0.472,0.829-0.808
			s0.622-0.714,0.966-1.134c0.342-0.42,0.678-0.854,1.007-1.302c0.329-0.447,0.644-0.881,0.944-1.301S82.803,280.566,83.041,280.23z
			 M72.504,286.087c0.112,0,0.266-0.087,0.462-0.263c0.195-0.175,0.412-0.405,0.65-0.692s0.486-0.612,0.745-0.977
			c0.259-0.363,0.518-0.737,0.777-1.122c0.259-0.385,0.507-0.763,0.745-1.134c0.237-0.371,0.447-0.703,0.629-0.997
			c0.112-0.266,0.214-0.539,0.305-0.818c0.091-0.28,0.192-0.56,0.305-0.84c-0.154-0.07-0.329-0.129-0.525-0.179
			c-0.195-0.049-0.412-0.073-0.65-0.073c-0.196,0-0.438,0.175-0.724,0.524c-0.287,0.351-0.585,0.787-0.893,1.313
			c-0.308,0.524-0.605,1.095-0.892,1.71c-0.287,0.616-0.525,1.187-0.714,1.711c-0.189,0.525-0.312,0.963-0.367,1.313
			C72.301,285.912,72.35,286.087,72.504,286.087z"/>
		<path fill="#001C7D" d="M94.773,280.23c0.111-0.168,0.203-0.23,0.272-0.188c0.07,0.042,0.123,0.126,0.158,0.252
			c0.034,0.126,0.049,0.262,0.042,0.409c-0.008,0.146-0.025,0.241-0.053,0.283c-0.141,0.224-0.34,0.528-0.599,0.913
			s-0.556,0.808-0.892,1.27s-0.696,0.935-1.081,1.417s-0.776,0.928-1.176,1.333c-0.398,0.406-0.79,0.742-1.175,1.008
			c-0.386,0.266-0.738,0.42-1.061,0.461h-0.126c-0.112,0-0.308-0.021-0.588-0.063c-0.279-0.042-0.566-0.122-0.86-0.241
			s-0.546-0.29-0.756-0.515c-0.21-0.224-0.301-0.524-0.272-0.902c0.014-0.098,0.031-0.203,0.053-0.314
			c0.021-0.112,0.052-0.245,0.094-0.399c-0.252,0.322-0.5,0.627-0.745,0.913c-0.245,0.287-0.479,0.543-0.703,0.767
			s-0.43,0.402-0.619,0.535c-0.188,0.133-0.346,0.199-0.472,0.199c-0.28,0-0.603-0.063-0.966-0.188
			c-0.364-0.126-0.703-0.305-1.019-0.536c-0.314-0.23-0.573-0.507-0.776-0.829c-0.202-0.321-0.29-0.678-0.262-1.07
			c0.027-0.266,0.129-0.644,0.304-1.133c0.176-0.49,0.396-1.029,0.661-1.616c0.267-0.588,0.567-1.183,0.902-1.784
			c0.336-0.602,0.679-1.151,1.029-1.648c0.35-0.496,0.692-0.902,1.028-1.217c0.336-0.315,0.644-0.473,0.924-0.473
			c0.377,0,0.727,0.06,1.049,0.179s0.619,0.27,0.893,0.451c0.272,0.182,0.518,0.382,0.734,0.599s0.402,0.423,0.557,0.619
			c0.279-0.658,0.434-1.092,0.461-1.302c0.015-0.252,0.147-0.371,0.399-0.356c0.252,0.014,0.518,0.104,0.798,0.272
			c0.279,0.168,0.531,0.375,0.755,0.619c0.224,0.245,0.329,0.473,0.315,0.683c-0.015,0.182-0.119,0.556-0.315,1.123
			c-0.195,0.566-0.427,1.206-0.692,1.92s-0.535,1.435-0.808,2.162c-0.273,0.728-0.494,1.337-0.661,1.826
			c-0.112,0.364-0.077,0.546,0.104,0.546c0.154,0,0.354-0.102,0.599-0.305c0.244-0.202,0.521-0.472,0.829-0.808
			c0.308-0.336,0.633-0.714,0.976-1.134s0.679-0.854,1.008-1.302c0.328-0.447,0.644-0.881,0.944-1.301S94.55,280.566,94.773,280.23z
			 M84.258,286.087c0.126,0,0.297-0.105,0.514-0.315c0.217-0.209,0.462-0.485,0.734-0.829c0.273-0.342,0.557-0.724,0.851-1.144
			s0.58-0.84,0.86-1.26c0.28-0.419,0.539-0.818,0.776-1.196c0.238-0.378,0.434-0.692,0.588-0.944
			c0.07-0.195,0.144-0.381,0.221-0.556s0.15-0.347,0.221-0.515c-0.168-0.084-0.36-0.161-0.577-0.231
			c-0.218-0.069-0.466-0.104-0.745-0.104c-0.196,0-0.441,0.175-0.735,0.524c-0.294,0.351-0.595,0.787-0.902,1.313
			c-0.308,0.524-0.602,1.095-0.882,1.71c-0.279,0.616-0.514,1.187-0.703,1.711c-0.188,0.525-0.312,0.963-0.367,1.313
			S84.104,286.087,84.258,286.087z"/>
		<path fill="#001C7D" d="M106.549,280.23c0.111-0.168,0.203-0.23,0.272-0.188c0.07,0.042,0.119,0.126,0.147,0.252
			c0.027,0.126,0.042,0.262,0.042,0.409c0,0.146-0.015,0.241-0.042,0.283c-0.141,0.224-0.34,0.528-0.599,0.913
			s-0.56,0.808-0.902,1.27s-0.707,0.935-1.092,1.417s-0.776,0.928-1.175,1.333c-0.399,0.406-0.787,0.742-1.165,1.008
			s-0.728,0.42-1.05,0.461h-0.146c-0.112,0-0.309-0.021-0.588-0.063c-0.28-0.042-0.566-0.122-0.86-0.241s-0.546-0.29-0.756-0.515
			c-0.21-0.224-0.301-0.524-0.273-0.902c0.028-0.182,0.091-0.427,0.189-0.734c-0.252,0.322-0.504,0.63-0.756,0.923
			c-0.252,0.294-0.493,0.554-0.724,0.777c-0.231,0.224-0.441,0.402-0.63,0.535c-0.189,0.133-0.347,0.199-0.473,0.199
			c-0.28,0-0.602-0.063-0.966-0.188c-0.363-0.126-0.703-0.305-1.018-0.536c-0.314-0.23-0.573-0.507-0.776-0.829
			c-0.203-0.321-0.283-0.678-0.241-1.07c0.014-0.266,0.108-0.644,0.283-1.133c0.175-0.49,0.396-1.029,0.661-1.616
			c0.266-0.588,0.566-1.183,0.902-1.784s0.683-1.151,1.039-1.648c0.356-0.496,0.703-0.902,1.039-1.217
			c0.336-0.315,0.644-0.473,0.924-0.473c0.335,0,0.657,0.053,0.965,0.157c0.308,0.105,0.591,0.234,0.851,0.389
			c0.259,0.154,0.493,0.333,0.703,0.535c0.21,0.203,0.398,0.396,0.566,0.577c0.49-1.371,0.935-2.76,1.333-4.166
			s0.654-2.697,0.767-3.873c0.014-0.168,0.098-0.266,0.251-0.294c0.154-0.027,0.343-0.003,0.567,0.073
			c0.224,0.077,0.462,0.189,0.714,0.336c0.251,0.147,0.485,0.309,0.703,0.483c0.217,0.175,0.392,0.354,0.524,0.535
			s0.192,0.343,0.179,0.482c-0.015,0.126-0.116,0.476-0.305,1.05c-0.188,0.573-0.427,1.277-0.714,2.109
			c-0.287,0.833-0.605,1.746-0.955,2.739s-0.696,1.97-1.039,2.928c-0.343,0.959-0.661,1.857-0.955,2.697s-0.524,1.512-0.692,2.016
			c-0.112,0.377-0.07,0.566,0.126,0.566c0.14,0,0.336-0.102,0.588-0.305c0.252-0.202,0.528-0.472,0.829-0.808
			s0.622-0.714,0.966-1.134c0.342-0.42,0.678-0.854,1.007-1.302c0.329-0.447,0.644-0.881,0.944-1.301
			S106.311,280.566,106.549,280.23z M96.012,286.087c0.112,0,0.266-0.087,0.462-0.263c0.195-0.175,0.412-0.405,0.65-0.692
			s0.486-0.612,0.745-0.977c0.259-0.363,0.518-0.737,0.777-1.122c0.259-0.385,0.507-0.763,0.745-1.134
			c0.237-0.371,0.447-0.703,0.629-0.997c0.112-0.266,0.214-0.539,0.305-0.818c0.091-0.28,0.192-0.56,0.305-0.84
			c-0.154-0.07-0.329-0.129-0.525-0.179c-0.195-0.049-0.412-0.073-0.65-0.073c-0.196,0-0.438,0.175-0.724,0.524
			c-0.287,0.351-0.585,0.787-0.893,1.313c-0.308,0.524-0.605,1.095-0.892,1.71c-0.287,0.616-0.525,1.187-0.714,1.711
			c-0.189,0.525-0.312,0.963-0.367,1.313C95.809,285.912,95.857,286.087,96.012,286.087z"/>
		<path fill="#001C7D" d="M119.395,273.955c0.56,0,0.99,0.087,1.291,0.262c0.301,0.176,0.511,0.364,0.63,0.567
			c0.119,0.202,0.164,0.392,0.137,0.566c-0.028,0.175-0.099,0.263-0.21,0.263c-0.099,0-0.172-0.024-0.221-0.074
			c-0.049-0.049-0.123-0.098-0.221-0.146s-0.234-0.098-0.409-0.147c-0.175-0.049-0.438-0.073-0.787-0.073
			c-0.238,0-0.619,0.035-1.144,0.105c-0.525,0.07-1.116,0.161-1.773,0.272c-0.294,0.826-0.612,1.722-0.955,2.687
			c-0.344,0.966-0.676,1.914-0.997,2.845c-0.322,0.931-0.623,1.794-0.903,2.592c-0.279,0.798-0.503,1.441-0.671,1.932
			c-0.112,0.392-0.07,0.587,0.126,0.587c0.14,0,0.336-0.101,0.587-0.304c0.252-0.203,0.528-0.473,0.829-0.809
			s0.623-0.717,0.966-1.144s0.679-0.86,1.008-1.302c0.328-0.44,0.644-0.874,0.944-1.301s0.57-0.809,0.809-1.145
			c0.111-0.168,0.202-0.23,0.272-0.188s0.122,0.126,0.157,0.252s0.049,0.262,0.042,0.409c-0.007,0.146-0.024,0.248-0.053,0.304
			c-0.14,0.225-0.339,0.528-0.598,0.913c-0.259,0.386-0.56,0.809-0.902,1.271c-0.344,0.462-0.707,0.934-1.092,1.417
			c-0.385,0.482-0.776,0.923-1.176,1.322c-0.398,0.398-0.787,0.734-1.165,1.007c-0.377,0.273-0.728,0.424-1.049,0.452
			c-0.028,0-0.053,0.003-0.073,0.01c-0.021,0.008-0.046,0.011-0.074,0.011c-0.112,0-0.308-0.021-0.588-0.063
			c-0.279-0.042-0.566-0.126-0.86-0.252s-0.546-0.301-0.756-0.525c-0.209-0.224-0.301-0.524-0.272-0.902
			c0.028-0.252,0.154-0.696,0.378-1.333s0.5-1.389,0.829-2.256c0.329-0.868,0.686-1.819,1.07-2.855
			c0.385-1.035,0.745-2.084,1.081-3.148c-0.35,0.042-0.672,0.077-0.966,0.105s-0.538,0.042-0.734,0.042
			c-0.405,0-0.738-0.126-0.997-0.378s-0.447-0.524-0.566-0.818s-0.175-0.567-0.168-0.819c0.007-0.251,0.08-0.377,0.22-0.377
			c0.057,0,0.134,0.031,0.231,0.094c0.098,0.063,0.234,0.137,0.409,0.221s0.398,0.157,0.672,0.221
			c0.272,0.063,0.612,0.094,1.018,0.094c0.266,0,0.511-0.003,0.735-0.01c0.224-0.007,0.44-0.011,0.65-0.011
			c0.195-0.714,0.36-1.399,0.493-2.057c0.133-0.658,0.228-1.281,0.283-1.868c0.014-0.168,0.098-0.266,0.252-0.294
			s0.343-0.007,0.566,0.063c0.224,0.07,0.462,0.179,0.714,0.325c0.252,0.147,0.486,0.309,0.703,0.483s0.392,0.354,0.525,0.535
			c0.133,0.182,0.191,0.343,0.178,0.482c-0.014,0.099-0.073,0.329-0.178,0.692c-0.105,0.364-0.256,0.813-0.452,1.344
			c0.35-0.042,0.693-0.077,1.029-0.104C118.556,273.969,118.947,273.955,119.395,273.955z"/>
		<path fill="#001C7D" d="M128.378,280.146c0.098-0.153,0.182-0.21,0.252-0.168c0.069,0.042,0.118,0.119,0.146,0.231
			s0.039,0.237,0.032,0.378c-0.008,0.14-0.032,0.23-0.074,0.272c-0.237,0.322-0.542,0.728-0.913,1.218
			c-0.37,0.489-0.805,0.969-1.301,1.438c-0.497,0.469-1.047,0.892-1.648,1.27s-1.245,0.609-1.931,0.693
			c-0.49,0.602-1.021,1.099-1.595,1.49c-0.574,0.392-1.162,0.587-1.764,0.587c-0.504,0-0.948-0.111-1.333-0.335
			s-0.71-0.504-0.976-0.84s-0.462-0.696-0.588-1.081s-0.175-0.738-0.146-1.061c0.014-0.237,0.08-0.507,0.199-0.808
			s0.266-0.612,0.44-0.935c0.175-0.321,0.364-0.643,0.566-0.965c0.203-0.322,0.41-0.616,0.619-0.882
			c0.126-0.531,0.336-1.042,0.63-1.532c0.294-0.489,0.641-0.92,1.039-1.291c0.399-0.37,0.822-0.664,1.271-0.882
			c0.447-0.217,0.881-0.325,1.301-0.325c0.462,0,0.867,0.119,1.218,0.357c0.35,0.237,0.64,0.538,0.871,0.902
			c0.23,0.364,0.398,0.763,0.504,1.196c0.104,0.434,0.136,0.84,0.094,1.218c-0.042,0.531-0.195,1.147-0.461,1.847
			c-0.267,0.7-0.609,1.399-1.029,2.099c0.406-0.14,0.822-0.356,1.249-0.65s0.84-0.63,1.238-1.008
			c0.399-0.377,0.777-0.776,1.134-1.196S128.098,280.553,128.378,280.146z M119.121,286.191c0.28,0,0.557-0.094,0.829-0.283
			c0.273-0.188,0.542-0.437,0.809-0.745c-0.49-0.21-0.917-0.489-1.28-0.84c-0.154,0.252-0.291,0.494-0.41,0.725
			c-0.118,0.23-0.202,0.431-0.251,0.599c-0.05,0.167-0.053,0.301-0.011,0.398S118.953,286.191,119.121,286.191z M122.521,277.48
			c-0.238,0-0.482,0.053-0.734,0.158c-0.252,0.104-0.504,0.245-0.756,0.42s-0.493,0.385-0.724,0.629
			c-0.231,0.245-0.438,0.515-0.619,0.809c0.153,0.014,0.346,0.06,0.577,0.137c0.23,0.076,0.458,0.175,0.682,0.293
			c0.224,0.119,0.409,0.26,0.557,0.42c0.146,0.161,0.213,0.333,0.199,0.515c-0.014,0.098-0.07,0.234-0.168,0.409
			s-0.221,0.378-0.367,0.608c-0.147,0.231-0.315,0.479-0.504,0.745c-0.188,0.267-0.375,0.532-0.557,0.798
			c0.42,0.322,0.882,0.567,1.386,0.734c0.224-0.363,0.438-0.752,0.641-1.164c0.202-0.413,0.377-0.815,0.524-1.207
			c0.146-0.392,0.27-0.759,0.367-1.103c0.098-0.343,0.161-0.64,0.188-0.892c0.07-0.84,0.063-1.435-0.021-1.784
			S122.886,277.48,122.521,277.48z"/>
		<path fill="#001C7D" d="M135.64,273.955c0.56,0,0.99,0.087,1.291,0.262c0.301,0.176,0.511,0.364,0.63,0.567
			c0.119,0.202,0.164,0.392,0.137,0.566c-0.028,0.175-0.099,0.263-0.21,0.263c-0.099,0-0.172-0.024-0.221-0.074
			c-0.049-0.049-0.123-0.098-0.221-0.146s-0.234-0.098-0.409-0.147c-0.175-0.049-0.438-0.073-0.787-0.073
			c-0.238,0-0.619,0.035-1.144,0.105c-0.525,0.07-1.116,0.161-1.773,0.272c-0.294,0.826-0.612,1.722-0.955,2.687
			c-0.344,0.966-0.676,1.914-0.997,2.845c-0.322,0.931-0.623,1.794-0.903,2.592c-0.279,0.798-0.503,1.441-0.671,1.932
			c-0.112,0.392-0.07,0.587,0.126,0.587c0.14,0,0.336-0.101,0.587-0.304c0.252-0.203,0.528-0.473,0.829-0.809
			s0.623-0.717,0.966-1.144s0.679-0.86,1.008-1.302c0.328-0.44,0.644-0.874,0.944-1.301s0.57-0.809,0.809-1.145
			c0.111-0.168,0.202-0.23,0.272-0.188s0.122,0.126,0.157,0.252s0.049,0.262,0.042,0.409c-0.007,0.146-0.024,0.248-0.053,0.304
			c-0.14,0.225-0.339,0.528-0.598,0.913c-0.259,0.386-0.56,0.809-0.902,1.271c-0.344,0.462-0.707,0.934-1.092,1.417
			c-0.385,0.482-0.776,0.923-1.176,1.322c-0.398,0.398-0.787,0.734-1.165,1.007c-0.377,0.273-0.728,0.424-1.049,0.452
			c-0.028,0-0.053,0.003-0.073,0.01c-0.021,0.008-0.046,0.011-0.074,0.011c-0.112,0-0.308-0.021-0.588-0.063
			c-0.279-0.042-0.566-0.126-0.86-0.252s-0.546-0.301-0.756-0.525c-0.209-0.224-0.301-0.524-0.272-0.902
			c0.028-0.252,0.154-0.696,0.378-1.333s0.5-1.389,0.829-2.256c0.329-0.868,0.686-1.819,1.07-2.855
			c0.385-1.035,0.745-2.084,1.081-3.148c-0.35,0.042-0.672,0.077-0.966,0.105s-0.538,0.042-0.734,0.042
			c-0.405,0-0.738-0.126-0.997-0.378s-0.447-0.524-0.566-0.818s-0.175-0.567-0.168-0.819c0.007-0.251,0.08-0.377,0.22-0.377
			c0.057,0,0.134,0.031,0.231,0.094c0.098,0.063,0.234,0.137,0.409,0.221s0.398,0.157,0.672,0.221
			c0.272,0.063,0.612,0.094,1.018,0.094c0.266,0,0.511-0.003,0.735-0.01c0.224-0.007,0.44-0.011,0.65-0.011
			c0.195-0.714,0.36-1.399,0.493-2.057c0.133-0.658,0.228-1.281,0.283-1.868c0.014-0.168,0.098-0.266,0.252-0.294
			s0.343-0.007,0.566,0.063c0.224,0.07,0.462,0.179,0.714,0.325c0.252,0.147,0.486,0.309,0.703,0.483s0.392,0.354,0.525,0.535
			c0.133,0.182,0.191,0.343,0.178,0.482c-0.014,0.099-0.073,0.329-0.178,0.692c-0.105,0.364-0.256,0.813-0.452,1.344
			c0.35-0.042,0.693-0.077,1.029-0.104C134.801,273.969,135.192,273.955,135.64,273.955z"/>
		<path fill="#001C7D" d="M146.366,280.23c0.111-0.168,0.203-0.23,0.272-0.188c0.07,0.042,0.123,0.126,0.158,0.252
			c0.034,0.126,0.049,0.262,0.042,0.409c-0.008,0.146-0.025,0.241-0.053,0.283c-0.141,0.224-0.34,0.528-0.599,0.913
			s-0.556,0.808-0.892,1.27s-0.696,0.935-1.081,1.417s-0.776,0.928-1.176,1.333c-0.398,0.406-0.79,0.742-1.175,1.008
			c-0.386,0.266-0.738,0.42-1.061,0.461h-0.126c-0.112,0-0.308-0.021-0.588-0.063c-0.279-0.042-0.566-0.122-0.86-0.241
			s-0.546-0.29-0.756-0.515c-0.21-0.224-0.301-0.524-0.272-0.902c0.014-0.098,0.031-0.203,0.053-0.314
			c0.021-0.112,0.052-0.245,0.094-0.399c-0.252,0.322-0.5,0.627-0.745,0.913c-0.245,0.287-0.479,0.543-0.703,0.767
			s-0.43,0.402-0.619,0.535c-0.188,0.133-0.346,0.199-0.472,0.199c-0.28,0-0.603-0.063-0.966-0.188
			c-0.364-0.126-0.703-0.305-1.019-0.536c-0.314-0.23-0.573-0.507-0.776-0.829c-0.202-0.321-0.29-0.678-0.262-1.07
			c0.027-0.266,0.129-0.644,0.304-1.133c0.176-0.49,0.396-1.029,0.661-1.616c0.267-0.588,0.567-1.183,0.902-1.784
			c0.336-0.602,0.679-1.151,1.029-1.648c0.35-0.496,0.692-0.902,1.028-1.217c0.336-0.315,0.644-0.473,0.924-0.473
			c0.377,0,0.727,0.06,1.049,0.179s0.619,0.27,0.893,0.451c0.272,0.182,0.518,0.382,0.734,0.599s0.402,0.423,0.557,0.619
			c0.279-0.658,0.434-1.092,0.461-1.302c0.015-0.252,0.147-0.371,0.399-0.356c0.252,0.014,0.518,0.104,0.798,0.272
			c0.279,0.168,0.531,0.375,0.755,0.619c0.224,0.245,0.329,0.473,0.315,0.683c-0.015,0.182-0.119,0.556-0.315,1.123
			c-0.195,0.566-0.427,1.206-0.692,1.92s-0.535,1.435-0.808,2.162c-0.273,0.728-0.494,1.337-0.661,1.826
			c-0.112,0.364-0.077,0.546,0.104,0.546c0.154,0,0.354-0.102,0.599-0.305c0.244-0.202,0.521-0.472,0.829-0.808
			c0.308-0.336,0.633-0.714,0.976-1.134s0.679-0.854,1.008-1.302c0.328-0.447,0.644-0.881,0.944-1.301
			S146.143,280.566,146.366,280.23z M135.851,286.087c0.126,0,0.297-0.105,0.514-0.315c0.217-0.209,0.462-0.485,0.734-0.829
			c0.273-0.342,0.557-0.724,0.851-1.144s0.58-0.84,0.86-1.26c0.28-0.419,0.539-0.818,0.776-1.196
			c0.238-0.378,0.434-0.692,0.588-0.944c0.07-0.195,0.144-0.381,0.221-0.556s0.15-0.347,0.221-0.515
			c-0.168-0.084-0.36-0.161-0.577-0.231c-0.218-0.069-0.466-0.104-0.745-0.104c-0.196,0-0.441,0.175-0.735,0.524
			c-0.294,0.351-0.595,0.787-0.902,1.313c-0.308,0.524-0.602,1.095-0.882,1.71c-0.279,0.616-0.514,1.187-0.703,1.711
			c-0.188,0.525-0.312,0.963-0.367,1.313S135.696,286.087,135.851,286.087z"/>
		<path fill="#001C7D" d="M152.39,280.272c0.112-0.168,0.203-0.23,0.273-0.188c0.069,0.042,0.122,0.126,0.157,0.252
			c0.034,0.126,0.049,0.262,0.042,0.409c-0.008,0.146-0.024,0.248-0.053,0.304c-0.14,0.225-0.333,0.535-0.577,0.935
			c-0.245,0.398-0.532,0.833-0.86,1.301c-0.329,0.47-0.689,0.945-1.081,1.428c-0.393,0.482-0.802,0.924-1.229,1.322
			c-0.427,0.399-0.864,0.725-1.312,0.977c-0.448,0.252-0.896,0.377-1.344,0.377c-0.126,0-0.297-0.038-0.514-0.115
			c-0.217-0.076-0.42-0.206-0.608-0.388c-0.189-0.182-0.35-0.417-0.483-0.703c-0.133-0.287-0.179-0.641-0.137-1.061
			c0.015-0.252,0.126-0.668,0.336-1.249c0.21-0.58,0.466-1.266,0.767-2.057c0.301-0.79,0.63-1.665,0.986-2.624
			c0.356-0.958,0.696-1.938,1.019-2.938c0.321-1,0.604-1.994,0.85-2.98s0.402-1.913,0.473-2.781
			c0.014-0.168,0.098-0.266,0.252-0.294c0.153-0.027,0.343-0.003,0.566,0.073c0.224,0.077,0.462,0.189,0.714,0.336
			c0.252,0.147,0.485,0.309,0.703,0.483c0.217,0.175,0.392,0.354,0.524,0.535s0.192,0.343,0.179,0.482
			c-0.015,0.099-0.073,0.322-0.179,0.672c-0.104,0.35-0.245,0.787-0.42,1.312c-0.175,0.525-0.381,1.123-0.619,1.795
			s-0.482,1.368-0.734,2.089s-0.511,1.451-0.776,2.193c-0.267,0.741-0.519,1.451-0.756,2.13c-0.238,0.679-0.459,1.309-0.661,1.89
			c-0.203,0.58-0.367,1.067-0.493,1.459c-0.042,0.279,0.014,0.419,0.168,0.419c0.14,0,0.328-0.098,0.566-0.294
			c0.237-0.195,0.496-0.451,0.776-0.766s0.577-0.679,0.893-1.092c0.314-0.412,0.626-0.832,0.934-1.259s0.605-0.847,0.893-1.26
			C151.91,280.983,152.166,280.608,152.39,280.272z"/>
		<path fill="#001C7D" d="M167.104,280.126c0.098-0.126,0.182-0.172,0.252-0.137c0.069,0.035,0.122,0.102,0.157,0.199
			c0.034,0.099,0.056,0.203,0.063,0.315c0.007,0.111-0.003,0.188-0.031,0.23c-0.154,0.21-0.389,0.521-0.703,0.934
			c-0.314,0.413-0.686,0.868-1.112,1.365c-0.427,0.496-0.896,1-1.406,1.511s-1.036,0.979-1.574,1.406
			c-0.539,0.427-1.078,0.773-1.616,1.039c-0.539,0.266-1.047,0.398-1.522,0.398c-0.35,0-0.717-0.094-1.102-0.283
			c-0.385-0.188-0.738-0.427-1.06-0.713c-0.322-0.287-0.585-0.592-0.787-0.913c-0.203-0.322-0.291-0.609-0.263-0.861
			c0.056-0.629,0.186-1.259,0.389-1.889c0.202-0.63,0.454-1.228,0.755-1.795c0.302-0.566,0.634-1.099,0.997-1.595
			c0.364-0.497,0.738-0.924,1.123-1.28c0.385-0.357,0.767-0.641,1.145-0.851c0.377-0.21,0.72-0.314,1.028-0.314
			c0.392,0,0.77,0.104,1.133,0.314c0.364,0.21,0.676,0.473,0.935,0.787s0.462,0.654,0.608,1.019
			c0.147,0.363,0.214,0.692,0.199,0.986c-0.027,0.294-0.164,0.654-0.409,1.081s-0.556,0.832-0.934,1.217
			c-0.378,0.386-0.798,0.718-1.26,0.997c-0.462,0.28-0.931,0.42-1.406,0.42c-0.28,0-0.528-0.018-0.745-0.053
			c-0.217-0.034-0.416-0.087-0.598-0.157c-0.141,0.378-0.252,0.731-0.336,1.061c-0.084,0.328-0.13,0.615-0.137,0.86
			s0.035,0.44,0.126,0.588c0.091,0.146,0.234,0.22,0.431,0.22c0.433,0,0.888-0.107,1.364-0.325c0.476-0.217,0.955-0.5,1.438-0.85
			s0.958-0.749,1.427-1.196c0.469-0.448,0.913-0.899,1.333-1.354c0.42-0.454,0.809-0.889,1.165-1.301
			C166.526,280.794,166.837,280.434,167.104,280.126z M162.695,278.446c-0.154,0-0.332,0.092-0.535,0.273s-0.42,0.427-0.65,0.734
			c-0.231,0.308-0.466,0.665-0.703,1.07c-0.238,0.406-0.47,0.826-0.693,1.26c0.546-0.126,1.025-0.371,1.438-0.735
			c0.412-0.363,0.741-0.737,0.986-1.123c0.244-0.384,0.385-0.727,0.42-1.028C162.992,278.597,162.905,278.446,162.695,278.446z"/>
		<path fill="#001C7D" d="M179.109,280.272c0.111-0.168,0.202-0.23,0.272-0.188s0.123,0.126,0.158,0.252
			c0.034,0.126,0.049,0.262,0.042,0.409c-0.008,0.146-0.025,0.241-0.053,0.283c-0.141,0.21-0.34,0.511-0.599,0.902
			s-0.56,0.822-0.902,1.291s-0.71,0.952-1.102,1.448c-0.393,0.497-0.787,0.952-1.187,1.364c-0.398,0.413-0.794,0.763-1.186,1.05
			c-0.393,0.286-0.749,0.458-1.07,0.514c-0.112,0.042-0.302,0.028-0.567-0.042c-0.266-0.069-0.528-0.188-0.787-0.356
			s-0.482-0.385-0.672-0.65c-0.188-0.266-0.27-0.574-0.241-0.924c0.014-0.266,0.112-0.644,0.294-1.134
			c0.182-0.489,0.396-1.028,0.641-1.616c0.244-0.587,0.507-1.199,0.787-1.836c0.279-0.637,0.531-1.242,0.756-1.816
			c-0.267,0.28-0.585,0.63-0.955,1.05c-0.371,0.42-0.764,0.868-1.176,1.344c-0.413,0.476-0.829,0.962-1.249,1.459
			c-0.42,0.496-0.812,0.969-1.176,1.416c-0.363,0.448-0.675,0.854-0.934,1.218c-0.259,0.364-0.438,0.65-0.535,0.86
			c-0.015,0.183-0.008,0.329,0.021,0.441c0.028,0.111-0.007,0.21-0.104,0.294c-0.084,0.069-0.259,0.076-0.524,0.021
			c-0.267-0.056-0.539-0.168-0.819-0.336c-0.279-0.168-0.524-0.389-0.734-0.661s-0.301-0.599-0.272-0.976
			c0.014-0.252,0.098-0.588,0.251-1.008c0.154-0.42,0.344-0.882,0.567-1.386s0.462-1.035,0.714-1.595s0.485-1.099,0.703-1.616
			c0.217-0.518,0.401-0.997,0.556-1.438c0.154-0.44,0.245-0.801,0.273-1.08c0.014-0.252,0.146-0.371,0.398-0.357
			c0.252,0.015,0.521,0.105,0.809,0.273c0.286,0.168,0.542,0.374,0.766,0.619s0.329,0.472,0.314,0.682
			c-0.014,0.126-0.073,0.354-0.178,0.683c-0.105,0.329-0.241,0.714-0.409,1.154s-0.354,0.92-0.557,1.438s-0.402,1.028-0.599,1.532
			c0.196-0.266,0.444-0.591,0.746-0.976c0.3-0.385,0.622-0.798,0.965-1.238c0.343-0.441,0.703-0.889,1.081-1.344
			c0.378-0.454,0.741-0.878,1.092-1.27c0.35-0.392,0.675-0.731,0.976-1.019c0.301-0.286,0.557-0.485,0.767-0.598
			c0.027-0.028,0.084-0.056,0.168-0.084c0.027-0.014,0.063-0.021,0.104-0.021c0.084,0,0.14,0.008,0.168,0.021
			c0.168,0.028,0.357,0.098,0.566,0.21c0.21,0.111,0.402,0.245,0.578,0.398c0.175,0.154,0.317,0.314,0.43,0.482
			s0.161,0.329,0.147,0.483c-0.015,0.126-0.074,0.35-0.179,0.672c-0.105,0.321-0.238,0.71-0.398,1.164
			c-0.161,0.455-0.344,0.945-0.546,1.47c-0.203,0.524-0.402,1.05-0.599,1.574s-0.385,1.025-0.566,1.501
			c-0.183,0.476-0.329,0.882-0.441,1.217c-0.084,0.309-0.042,0.462,0.126,0.462c0.224,0,0.55-0.224,0.977-0.671
			c0.427-0.448,0.889-0.99,1.385-1.627c0.497-0.637,0.987-1.302,1.47-1.994S178.76,280.776,179.109,280.272z"/>
		<path fill="#001C7D" d="M182.678,283.379c0,0.42,0.178,0.756,0.535,1.008c0.356,0.252,0.797,0.434,1.322,0.546
			c0.524,0.112,1.098,0.161,1.721,0.146c0.623-0.014,1.196-0.084,1.722-0.21c0.524-0.126,0.965-0.297,1.322-0.514
			c0.356-0.217,0.535-0.473,0.535-0.767c0-0.321-0.126-0.602-0.378-0.84c-0.252-0.237-0.566-0.472-0.944-0.703
			c-0.378-0.23-0.787-0.472-1.229-0.724c-0.44-0.252-0.85-0.546-1.228-0.882s-0.692-0.734-0.944-1.196s-0.378-1.021-0.378-1.68
			c0-0.643,0.115-1.294,0.347-1.951c0.23-0.658,0.538-1.291,0.923-1.9c0.385-0.608,0.833-1.179,1.344-1.71
			c0.511-0.532,1.042-0.994,1.595-1.386s1.109-0.699,1.669-0.924c0.56-0.224,1.084-0.336,1.574-0.336
			c0.63,0,1.176,0.119,1.638,0.357s0.843,0.532,1.144,0.882s0.528,0.724,0.683,1.122c0.153,0.399,0.23,0.753,0.23,1.061
			s-0.053,0.665-0.157,1.07c-0.105,0.406-0.245,0.826-0.42,1.26s-0.382,0.857-0.619,1.27c-0.238,0.413-0.49,0.78-0.756,1.102
			c-0.266,0.322-0.539,0.585-0.818,0.787c-0.28,0.203-0.553,0.305-0.818,0.305c-0.336,0-0.634-0.073-0.893-0.221
			c-0.259-0.146-0.462-0.304-0.608-0.472c-0.147-0.168-0.225-0.325-0.231-0.473c-0.007-0.146,0.081-0.22,0.263-0.22
			c0.196,0,0.451-0.186,0.767-0.557c0.314-0.371,0.622-0.84,0.923-1.406s0.56-1.183,0.777-1.848
			c0.217-0.664,0.325-1.297,0.325-1.899c0-0.224-0.063-0.392-0.189-0.504c-0.126-0.111-0.287-0.168-0.482-0.168
			c-0.294,0-0.623,0.109-0.986,0.326c-0.364,0.217-0.728,0.503-1.092,0.86c-0.364,0.356-0.724,0.773-1.081,1.249
			c-0.356,0.476-0.668,0.969-0.934,1.479c-0.267,0.511-0.483,1.025-0.651,1.543s-0.252,1-0.252,1.448
			c0,0.602,0.091,1.105,0.273,1.511c0.182,0.406,0.405,0.753,0.672,1.039c0.266,0.287,0.56,0.546,0.881,0.777
			c0.322,0.23,0.616,0.472,0.882,0.724s0.49,0.539,0.672,0.86c0.182,0.322,0.272,0.722,0.272,1.197c0,0.644-0.14,1.196-0.42,1.658
			c-0.279,0.461-0.664,0.839-1.154,1.133c-0.489,0.294-1.066,0.511-1.731,0.651c-0.665,0.14-1.382,0.209-2.151,0.209
			c-0.7,0-1.351-0.102-1.952-0.304c-0.602-0.203-1.119-0.462-1.553-0.776c-0.434-0.315-0.773-0.669-1.019-1.061
			c-0.244-0.392-0.367-0.776-0.367-1.154c0-0.531,0.108-0.99,0.325-1.375s0.451-0.682,0.703-0.892s0.486-0.326,0.703-0.347
			c0.218-0.021,0.325,0.053,0.325,0.221c0,0.084-0.031,0.161-0.094,0.23c-0.063,0.07-0.137,0.161-0.221,0.273
			c-0.084,0.111-0.157,0.251-0.221,0.419C182.709,282.875,182.678,283.1,182.678,283.379z"/>
		<path fill="#001C7D" d="M204.443,280.126c0.098-0.126,0.182-0.172,0.252-0.137c0.069,0.035,0.122,0.102,0.157,0.199
			c0.034,0.099,0.056,0.203,0.063,0.315c0.007,0.111-0.003,0.188-0.031,0.23c-0.154,0.21-0.389,0.521-0.703,0.934
			c-0.314,0.413-0.686,0.868-1.112,1.365c-0.427,0.496-0.896,1-1.406,1.511s-1.036,0.979-1.574,1.406
			c-0.539,0.427-1.078,0.773-1.616,1.039c-0.539,0.266-1.047,0.398-1.522,0.398c-0.35,0-0.717-0.094-1.102-0.283
			c-0.385-0.188-0.738-0.427-1.06-0.713c-0.322-0.287-0.585-0.592-0.787-0.913c-0.203-0.322-0.291-0.609-0.263-0.861
			c0.056-0.629,0.186-1.259,0.389-1.889c0.202-0.63,0.454-1.228,0.755-1.795c0.302-0.566,0.634-1.099,0.997-1.595
			c0.364-0.497,0.738-0.924,1.123-1.28c0.385-0.357,0.767-0.641,1.145-0.851c0.377-0.21,0.72-0.314,1.028-0.314
			c0.392,0,0.77,0.104,1.133,0.314c0.364,0.21,0.676,0.473,0.935,0.787s0.462,0.654,0.608,1.019
			c0.147,0.363,0.214,0.692,0.199,0.986c-0.027,0.294-0.164,0.654-0.409,1.081s-0.556,0.832-0.934,1.217
			c-0.378,0.386-0.798,0.718-1.26,0.997c-0.462,0.28-0.931,0.42-1.406,0.42c-0.28,0-0.528-0.018-0.745-0.053
			c-0.217-0.034-0.416-0.087-0.598-0.157c-0.141,0.378-0.252,0.731-0.336,1.061c-0.084,0.328-0.13,0.615-0.137,0.86
			s0.035,0.44,0.126,0.588c0.091,0.146,0.234,0.22,0.431,0.22c0.433,0,0.888-0.107,1.364-0.325c0.476-0.217,0.955-0.5,1.438-0.85
			s0.958-0.749,1.427-1.196c0.469-0.448,0.913-0.899,1.333-1.354c0.42-0.454,0.809-0.889,1.165-1.301
			C203.866,280.794,204.177,280.434,204.443,280.126z M200.035,278.446c-0.154,0-0.332,0.092-0.535,0.273s-0.42,0.427-0.65,0.734
			c-0.231,0.308-0.466,0.665-0.703,1.07c-0.238,0.406-0.47,0.826-0.693,1.26c0.546-0.126,1.025-0.371,1.438-0.735
			c0.412-0.363,0.741-0.737,0.986-1.123c0.244-0.384,0.385-0.727,0.42-1.028C200.332,278.597,200.245,278.446,200.035,278.446z"/>
		<path fill="#001C7D" d="M212.272,280.252c0.111-0.168,0.202-0.231,0.272-0.189s0.122,0.126,0.157,0.252s0.049,0.263,0.042,0.409
			c-0.007,0.147-0.024,0.241-0.052,0.283c-0.141,0.21-0.329,0.525-0.567,0.945s-0.514,0.878-0.829,1.374
			c-0.314,0.497-0.654,1.008-1.018,1.533c-0.364,0.524-0.731,1.007-1.103,1.448c-0.371,0.44-0.741,0.808-1.112,1.102
			s-0.717,0.462-1.039,0.504c-0.014,0-0.031,0.003-0.053,0.011c-0.021,0.007-0.045,0.01-0.073,0.01
			c-0.112,0-0.308-0.021-0.588-0.063c-0.279-0.042-0.566-0.126-0.86-0.252s-0.546-0.301-0.756-0.524s-0.301-0.525-0.272-0.903
			s0.153-0.825,0.378-1.343c0.224-0.518,0.462-1.035,0.714-1.554c0.252-0.518,0.482-1,0.692-1.448
			c0.21-0.447,0.321-0.776,0.336-0.986c0.027-0.252-0.035-0.473-0.189-0.661c-0.153-0.189-0.37-0.381-0.65-0.577
			c-0.196,0.308-0.389,0.588-0.577,0.84s-0.34,0.454-0.451,0.608c-0.042,0.07-0.099,0.084-0.168,0.042
			c-0.07-0.042-0.133-0.108-0.188-0.199c-0.057-0.091-0.095-0.186-0.116-0.283c-0.021-0.099-0.01-0.183,0.032-0.252
			c0.111-0.14,0.23-0.312,0.356-0.515s0.272-0.423,0.44-0.661c-0.238-0.168-0.476-0.35-0.713-0.546
			c-0.238-0.195-0.444-0.427-0.62-0.692c-0.175-0.266-0.308-0.567-0.398-0.902c-0.091-0.336-0.115-0.728-0.073-1.176
			c0.042-0.546,0.213-1.05,0.514-1.512c0.302-0.461,0.647-0.863,1.039-1.206s0.794-0.609,1.207-0.798
			c0.413-0.189,0.759-0.283,1.039-0.283c0.308,0,0.563,0.157,0.767,0.472c0.202,0.315,0.269,0.851,0.199,1.605
			c-0.057,0.616-0.214,1.257-0.473,1.921c-0.259,0.665-0.556,1.312-0.892,1.941c0.266,0.21,0.556,0.402,0.871,0.577
			c0.314,0.176,0.602,0.36,0.86,0.557s0.469,0.42,0.63,0.672c0.16,0.252,0.228,0.566,0.199,0.944
			c-0.014,0.168-0.095,0.469-0.241,0.902c-0.147,0.435-0.315,0.917-0.504,1.448c-0.188,0.532-0.385,1.07-0.588,1.616
			s-0.374,1.021-0.514,1.428c-0.112,0.392-0.077,0.588,0.104,0.588c0.154,0,0.347-0.116,0.577-0.347
			c0.231-0.23,0.486-0.531,0.767-0.902c0.279-0.371,0.577-0.791,0.892-1.26c0.315-0.469,0.626-0.944,0.935-1.427
			c0.308-0.483,0.604-0.948,0.892-1.396C211.793,280.979,212.048,280.588,212.272,280.252z M205.64,275.802
			c-0.028,0.364,0,0.683,0.084,0.955s0.21,0.515,0.377,0.724c0.308-0.559,0.578-1.133,0.809-1.721s0.367-1.134,0.409-1.638
			c0.042-0.447,0.028-0.748-0.042-0.902c-0.07-0.153-0.182-0.23-0.336-0.23c-0.126,0-0.262,0.098-0.409,0.294
			c-0.146,0.196-0.283,0.438-0.409,0.724c-0.126,0.287-0.234,0.592-0.325,0.913C205.705,275.242,205.653,275.536,205.64,275.802z"/>
		<path fill="#001C7D" d="M212.503,287.556c-0.028,0-0.057,0.007-0.084,0.021h-0.105c-0.195,0-0.416-0.031-0.661-0.095
			c-0.244-0.063-0.476-0.171-0.692-0.325c-0.217-0.153-0.392-0.36-0.524-0.619s-0.186-0.584-0.157-0.976
			c0.042-0.378,0.171-0.805,0.388-1.281c0.218-0.476,0.462-1.056,0.734-1.742c0.273-0.685,0.543-1.497,0.809-2.435
			s0.454-2.05,0.566-3.337c0.014-0.168,0.098-0.263,0.252-0.283c0.154-0.021,0.343,0.003,0.567,0.073
			c0.224,0.07,0.461,0.178,0.713,0.325c0.252,0.146,0.483,0.308,0.693,0.482c0.21,0.176,0.385,0.354,0.524,0.535
			c0.14,0.183,0.203,0.344,0.188,0.483c-0.014,0.14-0.087,0.416-0.22,0.829c-0.134,0.413-0.294,0.902-0.483,1.469
			c-0.188,0.567-0.398,1.169-0.629,1.806c-0.231,0.637-0.444,1.242-0.641,1.815c-0.07,0.252-0.084,0.455-0.042,0.608
			c0.042,0.154,0.161,0.231,0.356,0.231c0.294,0,0.644-0.186,1.05-0.557c0.406-0.37,0.829-0.843,1.27-1.417
			c0.441-0.573,0.886-1.21,1.333-1.91c0.448-0.699,0.851-1.374,1.207-2.025c0.357-0.65,0.647-1.241,0.871-1.773
			c0.224-0.531,0.35-0.924,0.378-1.176c0.028-0.363,0.108-0.577,0.241-0.64c0.133-0.063,0.27-0.042,0.409,0.063
			c0.14,0.105,0.263,0.263,0.368,0.473c0.104,0.21,0.149,0.406,0.136,0.588c-0.042,0.434-0.217,0.986-0.524,1.658
			c-0.308,0.671-0.707,1.389-1.196,2.151c-0.49,0.763-1.039,1.532-1.647,2.309c-0.609,0.776-1.229,1.49-1.858,2.141
			c-0.629,0.651-1.242,1.204-1.836,1.658c-0.596,0.455-1.123,0.738-1.585,0.851c-0.028,0-0.057,0.007-0.084,0.021H212.503z"/>
		<path fill="#001C7D" d="M227.343,280.23c0.112-0.168,0.199-0.23,0.263-0.188c0.063,0.042,0.104,0.126,0.126,0.252
			c0.021,0.126,0.024,0.262,0.01,0.409c-0.014,0.146-0.034,0.241-0.063,0.283c-0.14,0.224-0.336,0.528-0.588,0.913
			s-0.546,0.808-0.882,1.27c-0.335,0.462-0.696,0.935-1.08,1.417c-0.386,0.482-0.777,0.928-1.176,1.333
			c-0.398,0.406-0.787,0.742-1.165,1.008s-0.728,0.42-1.05,0.461h-0.126c-0.112,0-0.308-0.021-0.587-0.063
			c-0.28-0.042-0.567-0.122-0.861-0.241s-0.546-0.29-0.755-0.515c-0.21-0.224-0.301-0.524-0.273-0.902
			c0.015-0.252,0.102-0.608,0.263-1.07s0.356-0.977,0.588-1.543c0.23-0.566,0.476-1.15,0.734-1.753c0.259-0.602,0.5-1.168,0.724-1.7
			c0.224-0.531,0.413-0.993,0.567-1.385c0.153-0.392,0.237-0.658,0.252-0.798c0.014-0.252,0.146-0.371,0.398-0.356
			c0.252,0.014,0.518,0.104,0.798,0.272c0.279,0.168,0.535,0.375,0.766,0.619c0.231,0.245,0.34,0.473,0.325,0.683
			c-0.014,0.126-0.069,0.339-0.167,0.64c-0.099,0.301-0.221,0.658-0.368,1.07c-0.146,0.413-0.312,0.861-0.493,1.344
			s-0.364,0.962-0.546,1.438c-0.182,0.477-0.354,0.935-0.514,1.375c-0.161,0.44-0.298,0.822-0.409,1.145
			c-0.112,0.377-0.077,0.566,0.104,0.566c0.154,0,0.357-0.102,0.608-0.305c0.252-0.202,0.532-0.472,0.84-0.808
			s0.633-0.714,0.977-1.134c0.343-0.42,0.679-0.854,1.007-1.302c0.329-0.447,0.647-0.881,0.955-1.301
			S227.119,280.566,227.343,280.23z M224.509,275.802c-0.224,0-0.447-0.035-0.671-0.104c-0.225-0.07-0.424-0.168-0.599-0.294
			s-0.314-0.273-0.42-0.441c-0.104-0.168-0.15-0.343-0.136-0.524c0.027-0.28,0.129-0.57,0.304-0.871s0.396-0.573,0.661-0.818
			s0.549-0.448,0.851-0.609c0.301-0.16,0.591-0.241,0.871-0.241c0.42,0,0.755,0.123,1.007,0.367
			c0.252,0.245,0.364,0.592,0.336,1.039c-0.028,0.225-0.102,0.479-0.22,0.767c-0.119,0.287-0.276,0.56-0.473,0.818
			s-0.424,0.476-0.683,0.65C225.079,275.715,224.803,275.802,224.509,275.802z"/>
		<path fill="#001C7D" d="M233.661,279.622c-0.07,0.07-0.154,0.063-0.252-0.021c-0.099-0.084-0.228-0.191-0.389-0.325
			c-0.161-0.133-0.364-0.259-0.608-0.378c-0.245-0.118-0.55-0.178-0.913-0.178c-0.126,0-0.276,0.108-0.451,0.326
			c-0.176,0.218-0.36,0.505-0.557,0.863c-0.196,0.357-0.392,0.765-0.588,1.221c-0.196,0.455-0.378,0.919-0.546,1.389
			c-0.168,0.471-0.308,0.937-0.42,1.399c-0.111,0.464-0.182,0.87-0.209,1.222c-0.028,0.238-0.025,0.432,0.01,0.578
			c0.035,0.147,0.088,0.26,0.158,0.337c0.069,0.077,0.153,0.127,0.251,0.147c0.099,0.021,0.196,0.031,0.294,0.031
			c0.238,0,0.528-0.107,0.871-0.325c0.343-0.217,0.703-0.496,1.081-0.84c0.378-0.343,0.773-0.734,1.187-1.175
			c0.412-0.441,0.812-0.885,1.196-1.333c0.385-0.447,0.748-0.878,1.091-1.291c0.343-0.412,0.647-0.772,0.913-1.081
			c0.099-0.126,0.182-0.171,0.252-0.137c0.07,0.035,0.126,0.103,0.168,0.2s0.07,0.203,0.084,0.314
			c0.014,0.112,0.007,0.188-0.021,0.23c-0.154,0.225-0.382,0.539-0.683,0.945c-0.301,0.405-0.657,0.854-1.07,1.343
			c-0.413,0.49-0.86,0.99-1.344,1.501c-0.482,0.511-0.986,0.976-1.511,1.393c-0.524,0.418-1.05,0.757-1.574,1.019
			c-0.524,0.261-1.032,0.391-1.521,0.391c-0.504,0-0.948-0.091-1.333-0.272s-0.703-0.409-0.955-0.682
			c-0.252-0.273-0.441-0.56-0.567-0.861c-0.125-0.301-0.175-0.577-0.146-0.829c0.028-0.321,0.123-0.741,0.283-1.259
			c0.161-0.518,0.367-1.067,0.619-1.648c0.252-0.58,0.543-1.164,0.871-1.752c0.329-0.588,0.679-1.12,1.05-1.596
			c0.37-0.476,0.748-0.86,1.134-1.154c0.385-0.294,0.759-0.44,1.122-0.44c0.756,0,1.351,0.129,1.784,0.388
			c0.434,0.26,0.756,0.55,0.966,0.871c0.21,0.322,0.325,0.63,0.347,0.924C233.755,279.37,233.73,279.552,233.661,279.622z"/>
		<path fill="#001C7D" d="M241.93,280.23c0.112-0.168,0.199-0.23,0.263-0.188c0.063,0.042,0.104,0.126,0.126,0.252
			c0.021,0.126,0.024,0.262,0.01,0.409c-0.014,0.146-0.034,0.241-0.063,0.283c-0.14,0.224-0.336,0.528-0.588,0.913
			s-0.546,0.808-0.882,1.27c-0.335,0.462-0.696,0.935-1.08,1.417c-0.386,0.482-0.777,0.928-1.176,1.333
			c-0.398,0.406-0.787,0.742-1.165,1.008s-0.728,0.42-1.05,0.461h-0.126c-0.112,0-0.308-0.021-0.587-0.063
			c-0.28-0.042-0.567-0.122-0.861-0.241s-0.546-0.29-0.755-0.515c-0.21-0.224-0.301-0.524-0.273-0.902
			c0.015-0.252,0.102-0.608,0.263-1.07s0.356-0.977,0.588-1.543c0.23-0.566,0.476-1.15,0.734-1.753c0.259-0.602,0.5-1.168,0.724-1.7
			c0.224-0.531,0.413-0.993,0.567-1.385c0.153-0.392,0.237-0.658,0.252-0.798c0.014-0.252,0.146-0.371,0.398-0.356
			c0.252,0.014,0.518,0.104,0.798,0.272c0.279,0.168,0.535,0.375,0.766,0.619c0.231,0.245,0.34,0.473,0.325,0.683
			c-0.014,0.126-0.069,0.339-0.167,0.64c-0.099,0.301-0.221,0.658-0.368,1.07c-0.146,0.413-0.312,0.861-0.493,1.344
			s-0.364,0.962-0.546,1.438c-0.182,0.477-0.354,0.935-0.514,1.375c-0.161,0.44-0.298,0.822-0.409,1.145
			c-0.112,0.377-0.077,0.566,0.104,0.566c0.154,0,0.357-0.102,0.608-0.305c0.252-0.202,0.532-0.472,0.84-0.808
			s0.633-0.714,0.977-1.134c0.343-0.42,0.679-0.854,1.007-1.302c0.329-0.447,0.647-0.881,0.955-1.301S241.706,280.566,241.93,280.23
			z M239.096,275.802c-0.224,0-0.447-0.035-0.671-0.104c-0.225-0.07-0.424-0.168-0.599-0.294s-0.314-0.273-0.42-0.441
			c-0.104-0.168-0.15-0.343-0.136-0.524c0.027-0.28,0.129-0.57,0.304-0.871s0.396-0.573,0.661-0.818s0.549-0.448,0.851-0.609
			c0.301-0.16,0.591-0.241,0.871-0.241c0.42,0,0.755,0.123,1.007,0.367c0.252,0.245,0.364,0.592,0.336,1.039
			c-0.028,0.225-0.102,0.479-0.22,0.767c-0.119,0.287-0.276,0.56-0.473,0.818s-0.424,0.476-0.683,0.65
			C239.666,275.715,239.39,275.802,239.096,275.802z"/>
		<path fill="#001C7D" d="M251.858,280.146c0.098-0.153,0.182-0.21,0.252-0.168c0.069,0.042,0.118,0.119,0.146,0.231
			s0.039,0.237,0.032,0.378c-0.008,0.14-0.032,0.23-0.074,0.272c-0.237,0.322-0.542,0.728-0.913,1.218
			c-0.37,0.489-0.805,0.969-1.301,1.438c-0.497,0.469-1.047,0.892-1.648,1.27s-1.245,0.609-1.931,0.693
			c-0.49,0.602-1.021,1.099-1.595,1.49c-0.574,0.392-1.162,0.587-1.764,0.587c-0.504,0-0.948-0.111-1.333-0.335
			s-0.71-0.504-0.976-0.84s-0.462-0.696-0.588-1.081s-0.175-0.738-0.146-1.061c0.014-0.237,0.08-0.507,0.199-0.808
			s0.266-0.612,0.44-0.935c0.175-0.321,0.364-0.643,0.566-0.965c0.203-0.322,0.41-0.616,0.619-0.882
			c0.126-0.531,0.336-1.042,0.63-1.532c0.294-0.489,0.641-0.92,1.039-1.291c0.399-0.37,0.822-0.664,1.271-0.882
			c0.447-0.217,0.881-0.325,1.301-0.325c0.462,0,0.867,0.119,1.218,0.357c0.35,0.237,0.64,0.538,0.871,0.902
			c0.23,0.364,0.398,0.763,0.504,1.196c0.104,0.434,0.136,0.84,0.094,1.218c-0.042,0.531-0.195,1.147-0.461,1.847
			c-0.267,0.7-0.609,1.399-1.029,2.099c0.406-0.14,0.822-0.356,1.249-0.65s0.84-0.63,1.238-1.008
			c0.399-0.377,0.777-0.776,1.134-1.196S251.578,280.553,251.858,280.146z M242.602,286.191c0.28,0,0.557-0.094,0.829-0.283
			c0.273-0.188,0.542-0.437,0.809-0.745c-0.49-0.21-0.917-0.489-1.28-0.84c-0.154,0.252-0.291,0.494-0.41,0.725
			c-0.118,0.23-0.202,0.431-0.251,0.599c-0.05,0.167-0.053,0.301-0.011,0.398S242.434,286.191,242.602,286.191z M246.002,277.48
			c-0.238,0-0.482,0.053-0.734,0.158c-0.252,0.104-0.504,0.245-0.756,0.42s-0.493,0.385-0.724,0.629
			c-0.231,0.245-0.438,0.515-0.619,0.809c0.153,0.014,0.346,0.06,0.577,0.137c0.23,0.076,0.458,0.175,0.682,0.293
			c0.224,0.119,0.409,0.26,0.557,0.42c0.146,0.161,0.213,0.333,0.199,0.515c-0.014,0.098-0.07,0.234-0.168,0.409
			s-0.221,0.378-0.367,0.608c-0.147,0.231-0.315,0.479-0.504,0.745c-0.188,0.267-0.375,0.532-0.557,0.798
			c0.42,0.322,0.882,0.567,1.386,0.734c0.224-0.363,0.438-0.752,0.641-1.164c0.202-0.413,0.377-0.815,0.524-1.207
			c0.146-0.392,0.27-0.759,0.367-1.103c0.098-0.343,0.161-0.64,0.188-0.892c0.07-0.84,0.063-1.435-0.021-1.784
			S246.366,277.48,246.002,277.48z"/>
		<path fill="#001C7D" d="M259.016,280.21c0.112-0.168,0.207-0.242,0.283-0.221c0.077,0.021,0.137,0.084,0.179,0.188
			c0.042,0.105,0.063,0.225,0.063,0.357s-0.015,0.22-0.042,0.262c-0.267,0.435-0.687,0.84-1.26,1.218
			c-0.574,0.378-1.196,0.749-1.868,1.112c0.084,0.294,0.112,0.623,0.084,0.986c-0.042,0.42-0.188,0.857-0.44,1.313
			s-0.57,0.871-0.955,1.249c-0.386,0.378-0.819,0.689-1.302,0.934c-0.482,0.245-0.976,0.367-1.479,0.367
			c-0.168,0-0.333-0.052-0.493-0.157c-0.161-0.104-0.305-0.238-0.431-0.398c-0.126-0.161-0.228-0.34-0.305-0.535
			c-0.076-0.196-0.107-0.385-0.094-0.567c0.014-0.252,0.098-0.493,0.252-0.724c0.153-0.231,0.354-0.451,0.598-0.661
			c0.245-0.21,0.528-0.413,0.851-0.609c0.321-0.195,0.664-0.392,1.028-0.587c-0.042-0.602-0.179-1.155-0.409-1.658
			c-0.231-0.504-0.508-0.994-0.829-1.47c-0.07,0.084-0.134,0.165-0.189,0.241c-0.056,0.077-0.104,0.15-0.146,0.221
			s-0.102,0.084-0.179,0.042s-0.144-0.108-0.199-0.199s-0.095-0.186-0.115-0.283c-0.021-0.099-0.011-0.183,0.031-0.252
			c0.042-0.07,0.091-0.14,0.146-0.21c0.057-0.07,0.112-0.147,0.168-0.231c-0.392-0.588-0.73-1.203-1.018-1.847
			s-0.396-1.378-0.325-2.204c0.042-0.546,0.213-1.05,0.514-1.512c0.302-0.461,0.647-0.863,1.039-1.206s0.794-0.609,1.207-0.798
			c0.413-0.189,0.759-0.283,1.039-0.283c0.308,0,0.563,0.157,0.767,0.472c0.202,0.315,0.269,0.851,0.199,1.605
			c-0.057,0.672-0.238,1.379-0.546,2.12c-0.308,0.742-0.65,1.448-1.028,2.12c0.378,0.658,0.801,1.322,1.27,1.994
			s0.829,1.351,1.081,2.036c0.588-0.321,1.137-0.661,1.647-1.018C258.319,281.06,258.722,280.657,259.016,280.21z M252.278,286.737
			c0.195,0,0.37-0.073,0.524-0.22c0.154-0.147,0.29-0.329,0.409-0.546s0.214-0.451,0.283-0.703c0.07-0.252,0.119-0.476,0.147-0.672
			c-0.448,0.28-0.818,0.563-1.112,0.85c-0.294,0.287-0.455,0.592-0.483,0.913c-0.014,0.099,0.004,0.186,0.053,0.263
			S252.208,286.737,252.278,286.737z M253.034,275.802c-0.028,0.308-0.008,0.612,0.063,0.913s0.175,0.605,0.314,0.913
			c0.322-0.588,0.609-1.186,0.861-1.795c0.252-0.608,0.398-1.179,0.44-1.711c0.042-0.447,0.028-0.748-0.042-0.902
			c-0.07-0.153-0.182-0.23-0.336-0.23c-0.126,0-0.259,0.098-0.398,0.294c-0.141,0.196-0.273,0.438-0.399,0.724
			c-0.126,0.287-0.234,0.592-0.325,0.913C253.121,275.242,253.062,275.536,253.034,275.802z"/>
		<path fill="#001C7D" d="M272.911,269.861c1.176,0,2.18,0.231,3.012,0.693c0.833,0.461,1.494,1.073,1.983,1.836
			c0.49,0.763,0.802,1.638,0.935,2.624s0.084,2.005-0.147,3.054c-0.23,1.05-0.64,2.089-1.228,3.117s-1.357,1.97-2.309,2.823
			c-0.952,0.854-2.093,1.574-3.422,2.162s-2.848,0.973-4.555,1.154c-0.028,0.196-0.08,0.378-0.157,0.546s-0.199,0.252-0.367,0.252
			c-0.112,0-0.315-0.066-0.608-0.199c-0.294-0.134-0.581-0.298-0.861-0.494c-0.56,0-1.028-0.083-1.406-0.251
			s-0.675-0.354-0.892-0.557s-0.347-0.385-0.389-0.546c-0.042-0.16-0.007-0.241,0.105-0.241c0.168,0,0.308,0.018,0.419,0.053
			c0.112,0.035,0.221,0.077,0.326,0.126c0.104,0.049,0.224,0.091,0.356,0.126s0.305,0.052,0.515,0.052
			c0.027,0,0.052-0.003,0.073-0.01c0.021-0.007,0.045-0.011,0.073-0.011c0.084-0.224,0.255-0.626,0.515-1.207
			c0.259-0.58,0.569-1.267,0.934-2.057c0.364-0.791,0.763-1.665,1.196-2.624c0.434-0.958,0.854-1.932,1.26-2.918
			c0.405-0.986,0.787-1.959,1.144-2.917c0.357-0.959,0.647-1.844,0.871-2.655c-0.825,0.405-1.645,0.913-2.456,1.521
			s-1.535,1.273-2.172,1.994s-1.154,1.477-1.554,2.267c-0.398,0.791-0.598,1.563-0.598,2.319c0,0.309,0.024,0.546,0.073,0.714
			s0.098,0.298,0.146,0.389c0.05,0.091,0.099,0.164,0.147,0.22c0.049,0.057,0.073,0.126,0.073,0.21c0,0.196-0.133,0.26-0.398,0.189
			s-0.557-0.256-0.871-0.557c-0.315-0.301-0.602-0.724-0.86-1.27s-0.389-1.21-0.389-1.994c0-0.35,0.108-0.759,0.325-1.229
			c0.217-0.468,0.524-0.958,0.924-1.469c0.398-0.511,0.878-1.025,1.438-1.543s1.183-1,1.868-1.448
			c0.686-0.447,1.42-0.847,2.204-1.196c0.783-0.35,1.602-0.615,2.456-0.798c0.014-0.111,0.023-0.224,0.031-0.336
			c0.007-0.111,0.011-0.224,0.011-0.336c0-0.21,0.073-0.343,0.22-0.398c0.147-0.056,0.325-0.056,0.535,0s0.431,0.161,0.661,0.314
			c0.231,0.154,0.431,0.322,0.599,0.504H272.911z M268.104,285.353c1.008-0.35,1.955-0.826,2.844-1.428s1.69-1.273,2.403-2.015
			c0.714-0.742,1.337-1.529,1.868-2.361c0.532-0.833,0.948-1.655,1.249-2.467s0.479-1.592,0.535-2.34
			c0.056-0.749-0.028-1.407-0.252-1.974s-0.598-1.018-1.123-1.354c-0.524-0.336-1.221-0.504-2.088-0.504c-0.042,0-0.057,0-0.042,0
			c0.014,0,0.031,0,0.053,0c0.021,0,0.034,0,0.042,0c0.007,0-0.011,0-0.053,0c-0.084,0.266-0.256,0.738-0.515,1.417
			s-0.563,1.469-0.913,2.372c-0.35,0.902-0.721,1.871-1.112,2.906c-0.392,1.036-0.773,2.044-1.144,3.023
			c-0.371,0.979-0.714,1.886-1.029,2.718C268.514,284.181,268.272,284.849,268.104,285.353z"/>
		<path fill="#001C7D" d="M289.24,280.146c0.098-0.153,0.182-0.21,0.252-0.168c0.069,0.042,0.118,0.119,0.146,0.231
			s0.039,0.237,0.032,0.378c-0.008,0.14-0.032,0.23-0.074,0.272c-0.237,0.322-0.542,0.728-0.913,1.218
			c-0.37,0.489-0.805,0.969-1.301,1.438c-0.497,0.469-1.047,0.892-1.648,1.27s-1.245,0.609-1.931,0.693
			c-0.49,0.602-1.021,1.099-1.595,1.49c-0.574,0.392-1.162,0.587-1.764,0.587c-0.504,0-0.948-0.111-1.333-0.335
			s-0.71-0.504-0.976-0.84s-0.462-0.696-0.588-1.081s-0.175-0.738-0.146-1.061c0.014-0.237,0.08-0.507,0.199-0.808
			s0.266-0.612,0.44-0.935c0.175-0.321,0.364-0.643,0.566-0.965c0.203-0.322,0.41-0.616,0.619-0.882
			c0.126-0.531,0.336-1.042,0.63-1.532c0.294-0.489,0.641-0.92,1.039-1.291c0.399-0.37,0.822-0.664,1.271-0.882
			c0.447-0.217,0.881-0.325,1.301-0.325c0.462,0,0.867,0.119,1.218,0.357c0.35,0.237,0.64,0.538,0.871,0.902
			c0.23,0.364,0.398,0.763,0.504,1.196c0.104,0.434,0.136,0.84,0.094,1.218c-0.042,0.531-0.195,1.147-0.461,1.847
			c-0.267,0.7-0.609,1.399-1.029,2.099c0.406-0.14,0.822-0.356,1.249-0.65s0.84-0.63,1.238-1.008
			c0.399-0.377,0.777-0.776,1.134-1.196S288.96,280.553,289.24,280.146z M279.983,286.191c0.28,0,0.557-0.094,0.829-0.283
			c0.273-0.188,0.542-0.437,0.809-0.745c-0.49-0.21-0.917-0.489-1.28-0.84c-0.154,0.252-0.291,0.494-0.41,0.725
			c-0.118,0.23-0.202,0.431-0.251,0.599c-0.05,0.167-0.053,0.301-0.011,0.398S279.815,286.191,279.983,286.191z M283.384,277.48
			c-0.238,0-0.482,0.053-0.734,0.158c-0.252,0.104-0.504,0.245-0.756,0.42s-0.493,0.385-0.724,0.629
			c-0.231,0.245-0.438,0.515-0.619,0.809c0.153,0.014,0.346,0.06,0.577,0.137c0.23,0.076,0.458,0.175,0.682,0.293
			c0.224,0.119,0.409,0.26,0.557,0.42c0.146,0.161,0.213,0.333,0.199,0.515c-0.014,0.098-0.07,0.234-0.168,0.409
			s-0.221,0.378-0.367,0.608c-0.147,0.231-0.315,0.479-0.504,0.745c-0.188,0.267-0.375,0.532-0.557,0.798
			c0.42,0.322,0.882,0.567,1.386,0.734c0.224-0.363,0.438-0.752,0.641-1.164c0.202-0.413,0.377-0.815,0.524-1.207
			c0.146-0.392,0.27-0.759,0.367-1.103c0.098-0.343,0.161-0.64,0.188-0.892c0.07-0.84,0.063-1.435-0.021-1.784
			S283.748,277.48,283.384,277.48z"/>
		<path fill="#001C7D" d="M304.94,280.21c0.112-0.168,0.203-0.231,0.273-0.189c0.069,0.042,0.122,0.126,0.157,0.252
			c0.034,0.126,0.049,0.263,0.042,0.409c-0.008,0.147-0.024,0.249-0.053,0.305c-0.14,0.21-0.336,0.515-0.588,0.913
			s-0.542,0.833-0.871,1.302s-0.686,0.954-1.07,1.458s-0.773,0.966-1.165,1.386s-0.78,0.776-1.165,1.07s-0.738,0.469-1.06,0.524
			c-0.112,0.042-0.301,0.028-0.566-0.042c-0.267-0.069-0.528-0.188-0.787-0.356c-0.26-0.168-0.483-0.385-0.672-0.65
			c-0.189-0.266-0.27-0.574-0.241-0.924c0.014-0.237,0.091-0.56,0.23-0.966c0.14-0.405,0.312-0.854,0.515-1.343
			c0.202-0.49,0.423-1.011,0.661-1.564c0.237-0.552,0.469-1.095,0.692-1.626c-0.49,0.602-0.966,1.189-1.428,1.763
			c-0.461,0.574-0.892,1.109-1.29,1.605c-0.399,0.497-0.749,0.945-1.05,1.344s-0.521,0.71-0.661,0.934c0,0.07-0.004,0.137-0.011,0.2
			c-0.007,0.063-0.039,0.122-0.095,0.178c-0.084,0.07-0.252,0.077-0.504,0.021c-0.251-0.056-0.507-0.168-0.766-0.336
			s-0.482-0.389-0.672-0.661c-0.188-0.273-0.263-0.599-0.221-0.977c0.015-0.224,0.07-0.493,0.168-0.808s0.221-0.657,0.368-1.028
			c0.146-0.371,0.304-0.759,0.472-1.165s0.336-0.812,0.504-1.218c-0.322,0.462-0.7,1.012-1.134,1.647
			c-0.434,0.638-0.871,1.284-1.312,1.942c-0.44,0.657-0.851,1.283-1.228,1.878c-0.378,0.596-0.672,1.081-0.882,1.459
			c0.014,0.112,0.021,0.199,0.021,0.263c0,0.063-0.035,0.129-0.104,0.199c-0.084,0.084-0.259,0.098-0.524,0.042
			s-0.539-0.168-0.819-0.336c-0.279-0.168-0.524-0.389-0.734-0.661s-0.301-0.599-0.272-0.976c0.014-0.252,0.098-0.592,0.252-1.019
			c0.153-0.427,0.343-0.898,0.566-1.417c0.224-0.518,0.462-1.06,0.714-1.626c0.252-0.567,0.489-1.113,0.713-1.638
			s0.413-1.011,0.567-1.459c0.153-0.447,0.244-0.812,0.272-1.091c0.014-0.252,0.147-0.371,0.399-0.357
			c0.251,0.015,0.518,0.105,0.797,0.273c0.28,0.168,0.535,0.377,0.767,0.629c0.23,0.252,0.339,0.483,0.325,0.693
			c-0.014,0.126-0.077,0.354-0.188,0.682c-0.112,0.329-0.252,0.721-0.42,1.176s-0.354,0.944-0.557,1.469
			c-0.203,0.525-0.402,1.047-0.598,1.564c0.153-0.238,0.342-0.528,0.566-0.871c0.224-0.343,0.469-0.71,0.734-1.103
			c0.266-0.392,0.539-0.794,0.818-1.207c0.28-0.412,0.553-0.804,0.819-1.175c0.266-0.371,0.514-0.71,0.745-1.019
			c0.23-0.308,0.423-0.56,0.577-0.755v-0.021c0.014-0.252,0.146-0.37,0.398-0.356s0.518,0.104,0.798,0.272
			c0.279,0.168,0.535,0.375,0.766,0.619c0.231,0.245,0.34,0.473,0.326,0.683c-0.015,0.154-0.081,0.413-0.2,0.776
			c-0.119,0.364-0.266,0.78-0.44,1.249s-0.364,0.966-0.566,1.49c-0.203,0.524-0.396,1.018-0.577,1.479
			c0.168-0.252,0.385-0.57,0.65-0.955s0.553-0.794,0.86-1.228s0.623-0.875,0.944-1.322c0.322-0.448,0.637-0.871,0.945-1.271
			c0.308-0.398,0.591-0.748,0.85-1.049s0.473-0.528,0.641-0.683c0.042-0.084,0.111-0.133,0.21-0.146
			c0.014-0.014,0.042-0.021,0.084-0.021h0.042c0.167,0,0.363,0.057,0.587,0.168c0.224,0.112,0.434,0.245,0.63,0.399
			c0.196,0.153,0.36,0.321,0.493,0.503c0.133,0.183,0.192,0.357,0.179,0.525c-0.014,0.126-0.073,0.35-0.179,0.672
			c-0.104,0.321-0.238,0.71-0.398,1.164c-0.161,0.455-0.343,0.945-0.546,1.47s-0.402,1.05-0.599,1.574
			c-0.195,0.524-0.385,1.025-0.566,1.501s-0.329,0.882-0.44,1.217c-0.084,0.309-0.042,0.462,0.126,0.462
			c0.153,0,0.35-0.108,0.588-0.325c0.237-0.217,0.503-0.496,0.797-0.84c0.294-0.343,0.602-0.737,0.924-1.186
			c0.321-0.447,0.641-0.899,0.955-1.354c0.314-0.455,0.619-0.899,0.913-1.333S304.717,280.546,304.94,280.21z"/>
		<path fill="#001C7D" d="M314.408,279.989c0.069,0.035,0.122,0.102,0.157,0.199c0.034,0.099,0.056,0.203,0.063,0.315
			c0.007,0.111-0.003,0.188-0.031,0.23c-0.154,0.21-0.389,0.521-0.703,0.934c-0.314,0.413-0.686,0.868-1.112,1.365
			c-0.427,0.496-0.896,1-1.406,1.511s-1.036,0.979-1.574,1.406c-0.539,0.427-1.078,0.773-1.616,1.039
			c-0.539,0.266-1.047,0.398-1.522,0.398c-0.35,0-0.717-0.094-1.102-0.283c-0.385-0.188-0.738-0.427-1.06-0.713
			c-0.322-0.287-0.585-0.592-0.787-0.913c-0.203-0.322-0.291-0.609-0.263-0.861c0.056-0.629,0.186-1.259,0.389-1.889
			c0.202-0.63,0.454-1.228,0.755-1.795c0.302-0.566,0.634-1.099,0.997-1.595c0.364-0.497,0.738-0.924,1.123-1.28
			c0.385-0.357,0.767-0.641,1.145-0.851c0.377-0.21,0.72-0.314,1.028-0.314c0.392,0,0.77,0.104,1.133,0.314
			c0.364,0.21,0.676,0.473,0.935,0.787s0.462,0.654,0.608,1.019c0.147,0.363,0.214,0.692,0.199,0.986
			c-0.027,0.294-0.164,0.654-0.409,1.081s-0.556,0.832-0.934,1.217c-0.378,0.386-0.798,0.718-1.26,0.997
			c-0.462,0.28-0.931,0.42-1.406,0.42c-0.28,0-0.528-0.018-0.745-0.053c-0.217-0.034-0.416-0.087-0.598-0.157
			c-0.141,0.378-0.252,0.731-0.336,1.061c-0.084,0.328-0.13,0.615-0.137,0.86s0.035,0.44,0.126,0.588
			c0.091,0.146,0.234,0.22,0.431,0.22c0.433,0,0.888-0.107,1.364-0.325c0.476-0.217,0.955-0.5,1.438-0.85s0.958-0.749,1.427-1.196
			c0.469-0.448,0.913-0.899,1.333-1.354c0.42-0.454,0.809-0.889,1.165-1.301c0.357-0.413,0.668-0.773,0.935-1.081
			C314.254,280,314.338,279.954,314.408,279.989z M309.213,278.72c-0.203,0.182-0.42,0.427-0.65,0.734
			c-0.231,0.308-0.466,0.665-0.703,1.07c-0.238,0.406-0.47,0.826-0.693,1.26c0.546-0.126,1.025-0.371,1.438-0.735
			c0.412-0.363,0.741-0.737,0.986-1.123c0.244-0.384,0.385-0.727,0.42-1.028c0.034-0.301-0.053-0.451-0.263-0.451
			C309.594,278.446,309.416,278.538,309.213,278.72z M307.418,275.273c-0.014,0.096,0.011,0.198,0.073,0.308
			c0.063,0.109,0.172,0.212,0.326,0.308c0.153,0.096,0.35,0.144,0.587,0.144c0.252,0,0.578-0.069,0.977-0.21
			c0.398-0.14,0.783-0.308,1.154-0.503c0.371-0.196,0.692-0.399,0.966-0.609c0.272-0.21,0.409-0.392,0.409-0.546
			c0-0.14-0.035-0.286-0.105-0.44c-0.069-0.153-0.157-0.297-0.262-0.431c-0.105-0.133-0.225-0.241-0.357-0.325
			s-0.255-0.126-0.367-0.126c-0.07,0-0.241,0.12-0.514,0.36c-0.273,0.24-0.574,0.502-0.903,0.784
			c-0.328,0.282-0.661,0.544-0.997,0.783c-0.335,0.24-0.602,0.36-0.797,0.36C307.495,275.13,307.432,275.178,307.418,275.273z"/>
		<path fill="#001C7D" d="M321.544,280.21c0.112-0.168,0.207-0.242,0.283-0.221c0.077,0.021,0.137,0.084,0.179,0.188
			c0.042,0.105,0.063,0.225,0.063,0.357s-0.015,0.22-0.042,0.262c-0.267,0.435-0.687,0.84-1.26,1.218
			c-0.574,0.378-1.196,0.749-1.868,1.112c0.084,0.294,0.112,0.623,0.084,0.986c-0.042,0.42-0.188,0.857-0.44,1.313
			s-0.57,0.871-0.955,1.249c-0.386,0.378-0.819,0.689-1.302,0.934c-0.482,0.245-0.976,0.367-1.479,0.367
			c-0.168,0-0.333-0.052-0.493-0.157c-0.161-0.104-0.305-0.238-0.431-0.398c-0.126-0.161-0.228-0.34-0.305-0.535
			c-0.076-0.196-0.107-0.385-0.094-0.567c0.014-0.252,0.098-0.493,0.252-0.724c0.153-0.231,0.354-0.451,0.598-0.661
			c0.245-0.21,0.528-0.413,0.851-0.609c0.321-0.195,0.664-0.392,1.028-0.587c-0.042-0.602-0.179-1.155-0.409-1.658
			c-0.231-0.504-0.508-0.994-0.829-1.47c-0.07,0.084-0.134,0.165-0.189,0.241c-0.056,0.077-0.104,0.15-0.146,0.221
			s-0.102,0.084-0.179,0.042s-0.144-0.108-0.199-0.199s-0.095-0.186-0.115-0.283c-0.021-0.099-0.011-0.183,0.031-0.252
			c0.042-0.07,0.091-0.14,0.146-0.21c0.057-0.07,0.112-0.147,0.168-0.231c-0.392-0.588-0.73-1.203-1.018-1.847
			s-0.396-1.378-0.325-2.204c0.042-0.546,0.213-1.05,0.514-1.512c0.302-0.461,0.647-0.863,1.039-1.206s0.794-0.609,1.207-0.798
			c0.413-0.189,0.759-0.283,1.039-0.283c0.308,0,0.563,0.157,0.767,0.472c0.202,0.315,0.269,0.851,0.199,1.605
			c-0.057,0.672-0.238,1.379-0.546,2.12c-0.308,0.742-0.65,1.448-1.028,2.12c0.378,0.658,0.801,1.322,1.27,1.994
			s0.829,1.351,1.081,2.036c0.588-0.321,1.137-0.661,1.647-1.018C320.848,281.06,321.25,280.657,321.544,280.21z M314.807,286.737
			c0.195,0,0.37-0.073,0.524-0.22c0.154-0.147,0.29-0.329,0.409-0.546s0.214-0.451,0.283-0.703c0.07-0.252,0.119-0.476,0.147-0.672
			c-0.448,0.28-0.818,0.563-1.112,0.85c-0.294,0.287-0.455,0.592-0.483,0.913c-0.014,0.099,0.004,0.186,0.053,0.263
			S314.736,286.737,314.807,286.737z M315.563,275.802c-0.028,0.308-0.008,0.612,0.063,0.913s0.175,0.605,0.314,0.913
			c0.322-0.588,0.609-1.186,0.861-1.795c0.252-0.608,0.398-1.179,0.44-1.711c0.042-0.447,0.028-0.748-0.042-0.902
			c-0.07-0.153-0.182-0.23-0.336-0.23c-0.126,0-0.259,0.098-0.398,0.294c-0.141,0.196-0.273,0.438-0.399,0.724
			c-0.126,0.287-0.234,0.592-0.325,0.913C315.649,275.242,315.59,275.536,315.563,275.802z"/>
		<path fill="#001C7D" d="M328.827,273.955c0.56,0,0.99,0.087,1.291,0.262c0.301,0.176,0.511,0.364,0.63,0.567
			c0.119,0.202,0.164,0.392,0.137,0.566c-0.028,0.175-0.099,0.263-0.21,0.263c-0.099,0-0.172-0.024-0.221-0.074
			c-0.049-0.049-0.123-0.098-0.221-0.146s-0.234-0.098-0.409-0.147c-0.175-0.049-0.438-0.073-0.787-0.073
			c-0.238,0-0.619,0.035-1.144,0.105c-0.525,0.07-1.116,0.161-1.773,0.272c-0.294,0.826-0.612,1.722-0.955,2.687
			c-0.344,0.966-0.676,1.914-0.997,2.845c-0.322,0.931-0.623,1.794-0.903,2.592c-0.279,0.798-0.503,1.441-0.671,1.932
			c-0.112,0.392-0.07,0.587,0.126,0.587c0.14,0,0.336-0.101,0.587-0.304c0.252-0.203,0.528-0.473,0.829-0.809
			s0.623-0.717,0.966-1.144s0.679-0.86,1.008-1.302c0.328-0.44,0.644-0.874,0.944-1.301s0.57-0.809,0.809-1.145
			c0.111-0.168,0.202-0.23,0.272-0.188s0.122,0.126,0.157,0.252s0.049,0.262,0.042,0.409c-0.007,0.146-0.024,0.248-0.053,0.304
			c-0.14,0.225-0.339,0.528-0.598,0.913c-0.259,0.386-0.56,0.809-0.902,1.271c-0.344,0.462-0.707,0.934-1.092,1.417
			c-0.385,0.482-0.776,0.923-1.176,1.322c-0.398,0.398-0.787,0.734-1.165,1.007c-0.377,0.273-0.728,0.424-1.049,0.452
			c-0.028,0-0.053,0.003-0.073,0.01c-0.021,0.008-0.046,0.011-0.074,0.011c-0.112,0-0.308-0.021-0.588-0.063
			c-0.279-0.042-0.566-0.126-0.86-0.252s-0.546-0.301-0.756-0.525c-0.209-0.224-0.301-0.524-0.272-0.902
			c0.028-0.252,0.154-0.696,0.378-1.333s0.5-1.389,0.829-2.256c0.329-0.868,0.686-1.819,1.07-2.855
			c0.385-1.035,0.745-2.084,1.081-3.148c-0.35,0.042-0.672,0.077-0.966,0.105s-0.538,0.042-0.734,0.042
			c-0.405,0-0.738-0.126-0.997-0.378s-0.447-0.524-0.566-0.818s-0.175-0.567-0.168-0.819c0.007-0.251,0.08-0.377,0.22-0.377
			c0.057,0,0.134,0.031,0.231,0.094c0.098,0.063,0.234,0.137,0.409,0.221s0.398,0.157,0.672,0.221
			c0.272,0.063,0.612,0.094,1.018,0.094c0.266,0,0.511-0.003,0.735-0.01c0.224-0.007,0.44-0.011,0.65-0.011
			c0.195-0.714,0.36-1.399,0.493-2.057c0.133-0.658,0.228-1.281,0.283-1.868c0.014-0.168,0.098-0.266,0.252-0.294
			s0.343-0.007,0.566,0.063c0.224,0.07,0.462,0.179,0.714,0.325c0.252,0.147,0.486,0.309,0.703,0.483s0.392,0.354,0.525,0.535
			c0.133,0.182,0.191,0.343,0.178,0.482c-0.014,0.099-0.073,0.329-0.178,0.692c-0.105,0.364-0.256,0.813-0.452,1.344
			c0.35-0.042,0.693-0.077,1.029-0.104C327.988,273.969,328.38,273.955,328.827,273.955z"/>
		<path fill="#001C7D" d="M334.032,280.23c0.112-0.168,0.199-0.23,0.263-0.188c0.063,0.042,0.104,0.126,0.126,0.252
			c0.021,0.126,0.024,0.262,0.01,0.409c-0.014,0.146-0.034,0.241-0.063,0.283c-0.14,0.224-0.336,0.528-0.588,0.913
			s-0.546,0.808-0.882,1.27c-0.335,0.462-0.696,0.935-1.08,1.417c-0.386,0.482-0.777,0.928-1.176,1.333
			c-0.398,0.406-0.787,0.742-1.165,1.008s-0.728,0.42-1.05,0.461h-0.126c-0.112,0-0.308-0.021-0.587-0.063
			c-0.28-0.042-0.567-0.122-0.861-0.241s-0.546-0.29-0.755-0.515c-0.21-0.224-0.301-0.524-0.273-0.902
			c0.015-0.252,0.102-0.608,0.263-1.07s0.356-0.977,0.588-1.543c0.23-0.566,0.476-1.15,0.734-1.753c0.259-0.602,0.5-1.168,0.724-1.7
			c0.224-0.531,0.413-0.993,0.567-1.385c0.153-0.392,0.237-0.658,0.252-0.798c0.014-0.252,0.146-0.371,0.398-0.356
			c0.252,0.014,0.518,0.104,0.798,0.272c0.279,0.168,0.535,0.375,0.766,0.619c0.231,0.245,0.34,0.473,0.325,0.683
			c-0.014,0.126-0.069,0.339-0.167,0.64c-0.099,0.301-0.221,0.658-0.368,1.07c-0.146,0.413-0.312,0.861-0.493,1.344
			s-0.364,0.962-0.546,1.438c-0.182,0.477-0.354,0.935-0.514,1.375c-0.161,0.44-0.298,0.822-0.409,1.145
			c-0.112,0.377-0.077,0.566,0.104,0.566c0.154,0,0.357-0.102,0.608-0.305c0.252-0.202,0.532-0.472,0.84-0.808
			s0.633-0.714,0.977-1.134c0.343-0.42,0.679-0.854,1.007-1.302c0.329-0.447,0.647-0.881,0.955-1.301
			S333.809,280.566,334.032,280.23z M331.198,275.802c-0.224,0-0.447-0.035-0.671-0.104c-0.225-0.07-0.424-0.168-0.599-0.294
			s-0.314-0.273-0.42-0.441c-0.104-0.168-0.15-0.343-0.136-0.524c0.027-0.28,0.129-0.57,0.304-0.871s0.396-0.573,0.661-0.818
			s0.549-0.448,0.851-0.609c0.301-0.16,0.591-0.241,0.871-0.241c0.42,0,0.755,0.123,1.007,0.367
			c0.252,0.245,0.364,0.592,0.336,1.039c-0.028,0.225-0.102,0.479-0.22,0.767c-0.119,0.287-0.276,0.56-0.473,0.818
			s-0.424,0.476-0.683,0.65C331.769,275.715,331.492,275.802,331.198,275.802z"/>
		<path fill="#001C7D" d="M340.351,279.622c-0.07,0.07-0.154,0.063-0.252-0.021c-0.099-0.084-0.228-0.191-0.389-0.325
			c-0.161-0.133-0.364-0.259-0.608-0.378c-0.245-0.118-0.55-0.178-0.913-0.178c-0.126,0-0.276,0.108-0.451,0.326
			c-0.176,0.218-0.36,0.505-0.557,0.863c-0.196,0.357-0.392,0.765-0.588,1.221c-0.196,0.455-0.378,0.919-0.546,1.389
			c-0.168,0.471-0.308,0.937-0.42,1.399c-0.111,0.464-0.182,0.87-0.209,1.222c-0.028,0.238-0.025,0.432,0.01,0.578
			c0.035,0.147,0.088,0.26,0.158,0.337c0.069,0.077,0.153,0.127,0.251,0.147c0.099,0.021,0.196,0.031,0.294,0.031
			c0.238,0,0.528-0.107,0.871-0.325c0.343-0.217,0.703-0.496,1.081-0.84c0.378-0.343,0.773-0.734,1.187-1.175
			c0.412-0.441,0.812-0.885,1.196-1.333c0.385-0.447,0.748-0.878,1.091-1.291c0.343-0.412,0.647-0.772,0.913-1.081
			c0.099-0.126,0.182-0.171,0.252-0.137c0.07,0.035,0.126,0.103,0.168,0.2s0.07,0.203,0.084,0.314
			c0.014,0.112,0.007,0.188-0.021,0.23c-0.154,0.225-0.382,0.539-0.683,0.945c-0.301,0.405-0.657,0.854-1.07,1.343
			c-0.413,0.49-0.86,0.99-1.344,1.501c-0.482,0.511-0.986,0.976-1.511,1.393c-0.524,0.418-1.05,0.757-1.574,1.019
			c-0.524,0.261-1.032,0.391-1.521,0.391c-0.504,0-0.948-0.091-1.333-0.272s-0.703-0.409-0.955-0.682
			c-0.252-0.273-0.441-0.56-0.567-0.861c-0.125-0.301-0.175-0.577-0.146-0.829c0.028-0.321,0.123-0.741,0.283-1.259
			c0.161-0.518,0.367-1.067,0.619-1.648c0.252-0.58,0.543-1.164,0.871-1.752c0.329-0.588,0.679-1.12,1.05-1.596
			c0.37-0.476,0.748-0.86,1.134-1.154c0.385-0.294,0.759-0.44,1.122-0.44c0.756,0,1.351,0.129,1.784,0.388
			c0.434,0.26,0.756,0.55,0.966,0.871c0.21,0.322,0.325,0.63,0.347,0.924C340.444,279.37,340.42,279.552,340.351,279.622z"/>
		<path fill="#001C7D" d="M352.335,280.146c0.098-0.153,0.182-0.21,0.252-0.168c0.069,0.042,0.118,0.119,0.146,0.231
			s0.039,0.237,0.032,0.378c-0.008,0.14-0.032,0.23-0.074,0.272c-0.237,0.322-0.542,0.728-0.913,1.218
			c-0.37,0.489-0.805,0.969-1.301,1.438c-0.497,0.469-1.047,0.892-1.648,1.27s-1.245,0.609-1.931,0.693
			c-0.49,0.602-1.021,1.099-1.595,1.49c-0.574,0.392-1.162,0.587-1.764,0.587c-0.504,0-0.948-0.111-1.333-0.335
			s-0.71-0.504-0.976-0.84s-0.462-0.696-0.588-1.081s-0.175-0.738-0.146-1.061c0.014-0.237,0.08-0.507,0.199-0.808
			s0.266-0.612,0.44-0.935c0.175-0.321,0.364-0.643,0.566-0.965c0.203-0.322,0.41-0.616,0.619-0.882
			c0.126-0.531,0.336-1.042,0.63-1.532c0.294-0.489,0.641-0.92,1.039-1.291c0.399-0.37,0.822-0.664,1.271-0.882
			c0.447-0.217,0.881-0.325,1.301-0.325c0.462,0,0.867,0.119,1.218,0.357c0.35,0.237,0.64,0.538,0.871,0.902
			c0.23,0.364,0.398,0.763,0.504,1.196c0.104,0.434,0.136,0.84,0.094,1.218c-0.042,0.531-0.195,1.147-0.461,1.847
			c-0.267,0.7-0.609,1.399-1.029,2.099c0.406-0.14,0.822-0.356,1.249-0.65s0.84-0.63,1.238-1.008
			c0.399-0.377,0.777-0.776,1.134-1.196S352.055,280.553,352.335,280.146z M343.078,286.191c0.28,0,0.557-0.094,0.829-0.283
			c0.273-0.188,0.542-0.437,0.809-0.745c-0.49-0.21-0.917-0.489-1.28-0.84c-0.154,0.252-0.291,0.494-0.41,0.725
			c-0.118,0.23-0.202,0.431-0.251,0.599c-0.05,0.167-0.053,0.301-0.011,0.398S342.91,286.191,343.078,286.191z M346.479,277.48
			c-0.238,0-0.482,0.053-0.734,0.158c-0.252,0.104-0.504,0.245-0.756,0.42s-0.493,0.385-0.724,0.629
			c-0.231,0.245-0.438,0.515-0.619,0.809c0.153,0.014,0.346,0.06,0.577,0.137c0.23,0.076,0.458,0.175,0.682,0.293
			c0.224,0.119,0.409,0.26,0.557,0.42c0.146,0.161,0.213,0.333,0.199,0.515c-0.014,0.098-0.07,0.234-0.168,0.409
			s-0.221,0.378-0.367,0.608c-0.147,0.231-0.315,0.479-0.504,0.745c-0.188,0.267-0.375,0.532-0.557,0.798
			c0.42,0.322,0.882,0.567,1.386,0.734c0.224-0.363,0.438-0.752,0.641-1.164c0.202-0.413,0.377-0.815,0.524-1.207
			c0.146-0.392,0.27-0.759,0.367-1.103c0.098-0.343,0.161-0.64,0.188-0.892c0.07-0.84,0.063-1.435-0.021-1.784
			S346.843,277.48,346.479,277.48z"/>
		<path fill="#001C7D" d="M359.492,280.21c0.112-0.168,0.207-0.242,0.283-0.221c0.077,0.021,0.137,0.084,0.179,0.188
			c0.042,0.105,0.063,0.225,0.063,0.357s-0.015,0.22-0.042,0.262c-0.267,0.435-0.687,0.84-1.26,1.218
			c-0.574,0.378-1.196,0.749-1.868,1.112c0.084,0.294,0.112,0.623,0.084,0.986c-0.042,0.42-0.188,0.857-0.44,1.313
			s-0.57,0.871-0.955,1.249c-0.386,0.378-0.819,0.689-1.302,0.934c-0.482,0.245-0.976,0.367-1.479,0.367
			c-0.168,0-0.333-0.052-0.493-0.157c-0.161-0.104-0.305-0.238-0.431-0.398c-0.126-0.161-0.228-0.34-0.305-0.535
			c-0.076-0.196-0.107-0.385-0.094-0.567c0.014-0.252,0.098-0.493,0.252-0.724c0.153-0.231,0.354-0.451,0.598-0.661
			c0.245-0.21,0.528-0.413,0.851-0.609c0.321-0.195,0.664-0.392,1.028-0.587c-0.042-0.602-0.179-1.155-0.409-1.658
			c-0.231-0.504-0.508-0.994-0.829-1.47c-0.07,0.084-0.134,0.165-0.189,0.241c-0.056,0.077-0.104,0.15-0.146,0.221
			s-0.102,0.084-0.179,0.042s-0.144-0.108-0.199-0.199s-0.095-0.186-0.115-0.283c-0.021-0.099-0.011-0.183,0.031-0.252
			c0.042-0.07,0.091-0.14,0.146-0.21c0.057-0.07,0.112-0.147,0.168-0.231c-0.392-0.588-0.73-1.203-1.018-1.847
			s-0.396-1.378-0.325-2.204c0.042-0.546,0.213-1.05,0.514-1.512c0.302-0.461,0.647-0.863,1.039-1.206s0.794-0.609,1.207-0.798
			c0.413-0.189,0.759-0.283,1.039-0.283c0.308,0,0.563,0.157,0.767,0.472c0.202,0.315,0.269,0.851,0.199,1.605
			c-0.057,0.672-0.238,1.379-0.546,2.12c-0.308,0.742-0.65,1.448-1.028,2.12c0.378,0.658,0.801,1.322,1.27,1.994
			s0.829,1.351,1.081,2.036c0.588-0.321,1.137-0.661,1.647-1.018C358.796,281.06,359.198,280.657,359.492,280.21z M352.755,286.737
			c0.195,0,0.37-0.073,0.524-0.22c0.154-0.147,0.29-0.329,0.409-0.546s0.214-0.451,0.283-0.703c0.07-0.252,0.119-0.476,0.147-0.672
			c-0.448,0.28-0.818,0.563-1.112,0.85c-0.294,0.287-0.455,0.592-0.483,0.913c-0.014,0.099,0.004,0.186,0.053,0.263
			S352.685,286.737,352.755,286.737z M353.511,275.802c-0.028,0.308-0.008,0.612,0.063,0.913s0.175,0.605,0.314,0.913
			c0.322-0.588,0.609-1.186,0.861-1.795c0.252-0.608,0.398-1.179,0.44-1.711c0.042-0.447,0.028-0.748-0.042-0.902
			c-0.07-0.153-0.182-0.23-0.336-0.23c-0.126,0-0.259,0.098-0.398,0.294c-0.141,0.196-0.273,0.438-0.399,0.724
			c-0.126,0.287-0.234,0.592-0.325,0.913C353.598,275.242,353.538,275.536,353.511,275.802z"/>
	</g>
</g>
</svg>
